<?xml version="1.0" encoding="UTF-8"?>
<svg version="1.1" xmlns="http://www.w3.org/2000/svg" width="3543" height="3543">
<path d="M0 0 C5.83270795 5.03896023 10.59137355 10.72752623 15.1796875 16.89453125 C15.91396973 17.88090576 15.91396973 17.88090576 16.66308594 18.88720703 C20.23904451 23.69968206 23.78701997 28.53232114 27.32861328 33.37011719 C29.126665 35.82222149 30.9310207 38.2695208 32.73828125 40.71484375 C38.47135132 48.47266326 44.17218835 56.25082565 49.8046875 64.08203125 C54.34809888 70.3987482 58.97252337 76.64633412 63.66064453 82.85620117 C67.965221 88.5727974 72.14907362 94.37210908 76.32421875 100.18359375 C79.88616018 105.13120691 83.50639816 110.02911898 87.1796875 114.89453125 C91.98570589 121.26028648 96.670464 127.70592087 101.32421875 134.18359375 C104.88616018 139.13120691 108.50639816 144.02911898 112.1796875 148.89453125 C116.41939704 154.51018874 120.57410061 160.18010521 124.6796875 165.89453125 C128.7689301 171.58430765 132.90074797 177.2358062 137.1171875 182.83203125 C146.70438185 195.55676627 156.12251077 208.40173433 165.42553711 221.33544922 C169.43460891 226.89584954 173.53048739 232.38541109 177.66064453 237.85620117 C181.965221 243.5727974 186.14907362 249.37210908 190.32421875 255.18359375 C193.88616018 260.13120691 197.50639816 265.02911898 201.1796875 269.89453125 C205.41939704 275.51018874 209.57410061 281.18010521 213.6796875 286.89453125 C217.7689301 292.58430765 221.90074797 298.2358062 226.1171875 303.83203125 C235.70438185 316.55676627 245.12251077 329.40173433 254.42553711 342.33544922 C258.43460891 347.89584954 262.53048739 353.38541109 266.66064453 358.85620117 C270.965221 364.5727974 275.14907362 370.37210908 279.32421875 376.18359375 C282.88616018 381.13120691 286.50639816 386.02911898 290.1796875 390.89453125 C294.98570589 397.26028648 299.670464 403.70592087 304.32421875 410.18359375 C307.88616018 415.13120691 311.50639816 420.02911898 315.1796875 424.89453125 C319.41939704 430.51018874 323.57410061 436.18010521 327.6796875 441.89453125 C331.7689301 447.58430765 335.90074797 453.2358062 340.1171875 458.83203125 C349.70438185 471.55676627 359.12251077 484.40173433 368.42553711 497.33544922 C372.43460891 502.89584954 376.53048739 508.38541109 380.66064453 513.85620117 C384.965221 519.5727974 389.14907362 525.37210908 393.32421875 531.18359375 C396.88616018 536.13120691 400.50639816 541.02911898 404.1796875 545.89453125 C408.98570589 552.26028648 413.670464 558.70592087 418.32421875 565.18359375 C421.88616018 570.13120691 425.50639816 575.02911898 429.1796875 579.89453125 C433.41939704 585.51018874 437.57410061 591.18010521 441.6796875 596.89453125 C445.76893218 602.58431054 449.90085095 608.23572624 454.1171875 613.83203125 C460.8735548 622.80264182 467.56435303 631.81933581 474.1796875 640.89453125 C474.64600586 641.53084473 475.11232422 642.1671582 475.59277344 642.82275391 C484.63185225 655.21152897 490.58465975 667.0384233 490.5546875 682.58203125 C490.55307617 683.45762695 490.55146484 684.33322266 490.54980469 685.23535156 C490.41102202 692.63437282 489.05070324 699.04596246 486.1796875 705.89453125 C485.8909375 706.62542969 485.6021875 707.35632812 485.3046875 708.109375 C479.41307401 721.39180721 467.21182223 730.49441659 456.23046875 739.37890625 C452.65912126 742.32378177 449.1675711 745.35173212 445.6796875 748.39453125 C440.5212909 752.89214151 435.29811121 757.28449011 429.98046875 761.59375 C426.10801957 764.77488329 422.31239967 768.0420668 418.51367188 771.31054688 C412.9655003 776.08427356 407.38094396 780.81384132 401.78857422 785.53564453 C399.08396461 787.81999311 396.38196623 790.10742633 393.6796875 792.39453125 C392.59636651 793.31121251 391.51303318 794.22787918 390.4296875 795.14453125 C389.8934375 795.59828125 389.3571875 796.05203125 388.8046875 796.51953125 C387.1796875 797.89453125 385.5546875 799.26953125 383.9296875 800.64453125 C383.39327637 801.09844238 382.85686523 801.55235352 382.30419922 802.02001953 C381.22259229 802.93517538 380.14088681 803.85021475 379.05908203 804.76513672 C376.32350811 807.07896603 373.58976276 809.39489596 370.859375 811.71484375 C365.87654403 815.94532749 360.88266035 820.15306805 355.8046875 824.26953125 C350.68155683 828.43674249 345.70373822 832.75765582 340.72705078 837.09716797 C336.24237233 840.99862179 331.67496042 844.77931032 327.0546875 848.51953125 C323.54420997 851.41949095 320.11138815 854.4021432 316.6796875 857.39453125 C311.52117439 861.89201102 306.29811656 866.28448577 300.98046875 870.59375 C297.10801957 873.77488329 293.31239967 877.0420668 289.51367188 880.31054688 C283.9655003 885.08427356 278.38094396 889.81384132 272.78857422 894.53564453 C270.08396461 896.81999311 267.38196623 899.10742633 264.6796875 901.39453125 C263.59636651 902.31121251 262.51303318 903.22787918 261.4296875 904.14453125 C260.8934375 904.59828125 260.3571875 905.05203125 259.8046875 905.51953125 C258.1796875 906.89453125 256.5546875 908.26953125 254.9296875 909.64453125 C254.39327637 910.09844238 253.85686523 910.55235352 253.30419922 911.02001953 C252.22259229 911.93517538 251.14088681 912.85021475 250.05908203 913.76513672 C247.32350811 916.07896603 244.58976276 918.39489596 241.859375 920.71484375 C236.87654403 924.94532749 231.88266035 929.15306805 226.8046875 933.26953125 C221.68155683 937.43674249 216.70373822 941.75765582 211.72705078 946.09716797 C207.24237233 949.99862179 202.67496042 953.77931032 198.0546875 957.51953125 C194.54420997 960.41949095 191.11138815 963.4021432 187.6796875 966.39453125 C182.52117439 970.89201102 177.29811656 975.28448577 171.98046875 979.59375 C168.10801957 982.77488329 164.31239967 986.0420668 160.51367188 989.31054688 C154.9655003 994.08427356 149.38094396 998.81384132 143.78857422 1003.53564453 C141.08396461 1005.81999311 138.38196623 1008.10742633 135.6796875 1010.39453125 C134.59636651 1011.31121251 133.51303318 1012.22787918 132.4296875 1013.14453125 C131.8934375 1013.59828125 131.3571875 1014.05203125 130.8046875 1014.51953125 C124.84635417 1019.56119792 118.88802083 1024.60286458 112.9296875 1029.64453125 C112.39327637 1030.09844238 111.85686523 1030.55235352 111.30419922 1031.02001953 C110.22259229 1031.93517538 109.14088681 1032.85021475 108.05908203 1033.76513672 C105.32350811 1036.07896603 102.58976276 1038.39489596 99.859375 1040.71484375 C94.87654403 1044.94532749 89.88266035 1049.15306805 84.8046875 1053.26953125 C79.68155683 1057.43674249 74.70373822 1061.75765582 69.72705078 1066.09716797 C65.24237233 1069.99862179 60.67496042 1073.77931032 56.0546875 1077.51953125 C52.54420997 1080.41949095 49.11138815 1083.4021432 45.6796875 1086.39453125 C40.52117439 1090.89201102 35.29811656 1095.28448577 29.98046875 1099.59375 C26.10801957 1102.77488329 22.31239967 1106.0420668 18.51367188 1109.31054688 C12.9655003 1114.08427356 7.38094396 1118.81384132 1.78857422 1123.53564453 C-0.91603539 1125.81999311 -3.61803377 1128.10742633 -6.3203125 1130.39453125 C-7.40363349 1131.31121251 -8.48696682 1132.22787918 -9.5703125 1133.14453125 C-10.1065625 1133.59828125 -10.6428125 1134.05203125 -11.1953125 1134.51953125 C-17.15364583 1139.56119792 -23.11197917 1144.60286458 -29.0703125 1149.64453125 C-29.60672363 1150.09844238 -30.14313477 1150.55235352 -30.69580078 1151.02001953 C-31.77740771 1151.93517538 -32.85911319 1152.85021475 -33.94091797 1153.76513672 C-36.67649189 1156.07896603 -39.41023724 1158.39489596 -42.140625 1160.71484375 C-47.12345597 1164.94532749 -52.11733965 1169.15306805 -57.1953125 1173.26953125 C-62.31844317 1177.43674249 -67.29626178 1181.75765582 -72.27294922 1186.09716797 C-76.75762767 1189.99862179 -81.32503958 1193.77931032 -85.9453125 1197.51953125 C-89.45579003 1200.41949095 -92.88861185 1203.4021432 -96.3203125 1206.39453125 C-101.47882561 1210.89201102 -106.70188344 1215.28448577 -112.01953125 1219.59375 C-115.89198043 1222.77488329 -119.68760033 1226.0420668 -123.48632812 1229.31054688 C-129.0344997 1234.08427356 -134.61905604 1238.81384132 -140.21142578 1243.53564453 C-142.91603539 1245.81999311 -145.61803377 1248.10742633 -148.3203125 1250.39453125 C-149.40363349 1251.31121251 -150.48696682 1252.22787918 -151.5703125 1253.14453125 C-152.1065625 1253.59828125 -152.6428125 1254.05203125 -153.1953125 1254.51953125 C-159.15364583 1259.56119792 -165.11197917 1264.60286458 -171.0703125 1269.64453125 C-171.60672363 1270.09844238 -172.14313477 1270.55235352 -172.69580078 1271.02001953 C-173.77740771 1271.93517538 -174.85911319 1272.85021475 -175.94091797 1273.76513672 C-178.67649189 1276.07896603 -181.41023724 1278.39489596 -184.140625 1280.71484375 C-189.12345597 1284.94532749 -194.11733965 1289.15306805 -199.1953125 1293.26953125 C-204.31844317 1297.43674249 -209.29626178 1301.75765582 -214.27294922 1306.09716797 C-218.75762767 1309.99862179 -223.32503958 1313.77931032 -227.9453125 1317.51953125 C-231.45579003 1320.41949095 -234.88861185 1323.4021432 -238.3203125 1326.39453125 C-243.47882561 1330.89201102 -248.70188344 1335.28448577 -254.01953125 1339.59375 C-257.89198043 1342.77488329 -261.68760033 1346.0420668 -265.48632812 1349.31054688 C-271.0344997 1354.08427356 -276.61905604 1358.81384132 -282.21142578 1363.53564453 C-284.91603539 1365.81999311 -287.61803377 1368.10742633 -290.3203125 1370.39453125 C-291.40363349 1371.31121251 -292.48696682 1372.22787918 -293.5703125 1373.14453125 C-294.1065625 1373.59828125 -294.6428125 1374.05203125 -295.1953125 1374.51953125 C-296.8203125 1375.89453125 -298.4453125 1377.26953125 -300.0703125 1378.64453125 C-300.60672363 1379.09844238 -301.14313477 1379.55235352 -301.69580078 1380.02001953 C-302.77740771 1380.93517538 -303.85911319 1381.85021475 -304.94091797 1382.76513672 C-307.67649189 1385.07896603 -310.41023724 1387.39489596 -313.140625 1389.71484375 C-318.12345597 1393.94532749 -323.11733965 1398.15306805 -328.1953125 1402.26953125 C-333.31160825 1406.4311829 -338.28270558 1410.74636112 -343.25317383 1415.07958984 C-347.88468722 1419.10807557 -352.58255303 1423.03397383 -357.35546875 1426.89453125 C-358.16886719 1427.55453125 -358.98226563 1428.21453125 -359.8203125 1428.89453125 C-360.81675781 1429.67441406 -361.81320312 1430.45429688 -362.83984375 1431.2578125 C-370.3817789 1437.92990454 -375.88752165 1447.30219875 -378.8203125 1456.89453125 C-379.04332031 1457.59578125 -379.26632812 1458.29703125 -379.49609375 1459.01953125 C-382.65341287 1470.70375984 -380.65316797 1483.534026 -379.37487793 1495.37219238 C-379.21625256 1496.89210628 -379.05826656 1498.412087 -378.90085417 1499.932127 C-378.46823103 1504.09184762 -378.02661439 1508.25057038 -377.58347233 1512.40918171 C-377.10139122 1516.94867056 -376.62783221 1521.48904983 -376.1531744 1526.02931976 C-375.3187657 1533.99952402 -374.47898105 1541.96914752 -373.63567924 1549.93841553 C-372.3750709 1561.85163712 -371.1229449 1573.76573981 -369.87254276 1585.68003643 C-367.75356147 1605.8684178 -365.62796153 1626.05609714 -363.49880981 1646.2434082 C-360.57128798 1674.00115164 -357.65282693 1701.75984238 -354.73678648 1729.51879406 C-353.36268979 1742.59927346 -351.98816916 1755.67970831 -350.61354065 1768.76013184 C-350.544402 1769.41803598 -350.47526335 1770.07594013 -350.4040296 1770.75378076 C-347.22322199 1801.02129739 -344.03829335 1831.28838003 -340.85291688 1861.55541612 C-335.58771203 1911.58478517 -330.3252303 1961.61443973 -325.06689453 2011.64453125 C-324.98588328 2012.41530424 -324.90487203 2013.18607723 -324.8214059 2013.98020698 C-320.98386007 2050.49227121 -317.1477908 2087.00449033 -313.31417847 2123.51696777 C-313.23443582 2124.27645801 -313.15469318 2125.03594824 -313.07253409 2125.81845333 C-311.47195212 2141.06288003 -309.87150082 2156.30732044 -308.27132876 2171.55179017 C-307.40050429 2179.8479277 -306.52962787 2188.14405977 -305.65869141 2196.44018555 C-305.58063511 2197.18371656 -305.50257881 2197.92724757 -305.42215717 2198.69330982 C-302.82636653 2223.41934913 -300.22679863 2248.14498978 -297.62537277 2272.87043679 C-295.15025694 2296.39547209 -292.67779052 2319.92078438 -290.20858026 2343.44644031 C-289.85497913 2346.81539121 -289.50134411 2350.18433856 -289.14768791 2353.55328369 C-289.07832241 2354.21407156 -289.0089569 2354.87485942 -288.93748941 2355.55567116 C-287.77156265 2366.66163163 -286.60213387 2377.76722114 -285.4317781 2388.87271562 C-284.40943783 2398.57599991 -283.39029922 2408.27961705 -282.37372855 2417.98350748 C-281.79344855 2423.52178143 -281.21177862 2429.05989955 -280.62619305 2434.59761524 C-280.09204139 2439.64918129 -279.56200795 2444.7011625 -279.03513812 2449.75349307 C-278.84566155 2451.56363263 -278.65473259 2453.37362095 -278.46210641 2455.18342805 C-277.52291894 2464.01499555 -276.68879575 2472.8390457 -276.16104794 2481.70580292 C-276.09261636 2482.80195515 -276.09261636 2482.80195515 -276.02280233 2483.92025188 C-275.18302586 2499.57187583 -280.71846611 2513.07057748 -290.8203125 2524.89453125 C-303.19409621 2538.12383795 -318.32047216 2542.64561271 -335.88206482 2544.35624695 C-337.04680913 2544.47723324 -338.21155343 2544.59821953 -339.41159302 2544.72287208 C-342.61238654 2545.05345878 -345.81388195 2545.37578641 -349.01587784 2545.69447482 C-352.4815306 2546.04147245 -355.9460702 2546.39927907 -359.4107666 2546.75567627 C-366.18570694 2547.45085843 -372.96161549 2548.13611497 -379.73791724 2548.817885 C-387.63985693 2549.61324414 -395.54081435 2550.41816154 -403.44175745 2551.22335003 C-417.54575749 2552.66033123 -431.65067143 2554.08813741 -445.75610352 2555.51098633 C-459.42288436 2556.88959106 -473.08890026 2558.27549267 -486.75415039 2559.66918945 C-501.65702847 2561.18909831 -516.56028122 2562.70522942 -531.46423203 2564.21458656 C-533.05556719 2564.37574685 -534.6469023 2564.53690753 -536.23823738 2564.69806862 C-537.4124944 2564.81697997 -537.4124944 2564.81697997 -538.61047379 2564.93829357 C-544.10949778 2565.49537619 -549.60825903 2566.05500663 -555.10693169 2566.61554527 C-561.81458038 2567.29920599 -568.52266697 2567.97837409 -575.23133164 2568.65199479 C-578.64983237 2568.99534341 -582.06811728 2569.34054168 -585.48589516 2569.69101906 C-589.20058269 2570.07087124 -592.91594922 2570.4432363 -596.63157654 2570.81376648 C-597.69803939 2570.92455762 -598.76450224 2571.03534876 -599.86328214 2571.14949721 C-618.31290961 2572.96122304 -635.44531623 2571.60358946 -650.50390625 2559.7890625 C-666.74097101 2545.7716262 -671.57189408 2529.20739399 -673.65101624 2508.44560242 C-673.81352547 2506.89167339 -673.97684287 2505.33782871 -674.14088857 2503.78406113 C-674.58902242 2499.51723318 -675.02571883 2495.24930105 -675.46054916 2490.98109969 C-675.93683242 2486.32632568 -676.42385451 2481.6726733 -676.90950871 2477.0188694 C-677.7612738 2468.8425688 -678.60621947 2460.6655857 -679.44675064 2452.48812294 C-680.7032574 2440.26418163 -681.97051689 2428.0413715 -683.23997685 2415.81876945 C-685.39270426 2395.08920576 -687.53701105 2374.35877905 -689.67672729 2353.62786865 C-692.70263978 2324.31178714 -695.73970787 2294.99686831 -698.7794303 2265.68221589 C-700.04166959 2253.50922752 -701.30351653 2241.33619847 -702.56529059 2229.16316186 C-702.7076129 2227.79010213 -702.84993668 2226.41704254 -702.99226193 2225.04398311 C-705.18060604 2203.93225493 -707.36704714 2182.82033028 -709.55205001 2161.70825603 C-717.3245442 2086.60859368 -725.11373792 2011.51068508 -735.85501435 1908.20020047 C-736.34355684 1903.50187399 -736.83208449 1898.80354596 -737.32060981 1894.1052177 C-740.15088284 1866.88549588 -742.98132508 1839.66579166 -745.81209831 1812.44612186 C-750.01668559 1772.01631993 -754.21985625 1731.58637103 -758.42152343 1691.15626553 C-759.01894082 1685.40769254 -759.61638265 1679.6591221 -760.2138311 1673.91055234 C-762.87785015 1648.27770934 -765.54178471 1622.6448576 -768.20457839 1597.01188727 C-769.6998125 1582.61825434 -771.19526336 1568.22464393 -772.69091797 1553.83105469 C-772.88742052 1551.93994361 -772.88742052 1551.93994361 -773.08789282 1550.01062827 C-776.53460402 1516.84087528 -779.98935702 1483.67197502 -783.45608089 1450.50430756 C-784.2306893 1443.09311031 -785.00478767 1435.68185995 -785.77851582 1428.27057076 C-785.93717625 1426.75087466 -785.93717625 1426.75087466 -786.09904194 1425.20047764 C-786.51731099 1421.19412651 -786.93557269 1417.18777461 -787.35377059 1413.18141605 C-788.52858514 1401.92693899 -789.70535449 1390.67267115 -790.88594638 1379.4187986 C-791.59519066 1372.65663858 -792.30216086 1365.8942434 -793.0072877 1359.1316528 C-793.40455968 1355.32244234 -793.80288998 1351.51335106 -794.20428967 1347.70457315 C-800.2072234 1290.71912083 -800.2072234 1290.71912083 -784.26953125 1270.671875 C-780.44232056 1266.33192795 -776.2786052 1262.57279084 -771.8203125 1258.89453125 C-770.95535156 1258.17910156 -770.09039063 1257.46367188 -769.19921875 1256.7265625 C-767.38362188 1255.23772037 -765.56318215 1253.75476704 -763.73828125 1252.27734375 C-760.56613843 1249.68697277 -757.43987956 1247.04770258 -754.3203125 1244.39453125 C-750.35139362 1241.02156188 -746.36013819 1237.68276147 -742.3203125 1234.39453125 C-736.08114494 1229.31277448 -729.95139288 1224.10559019 -723.8203125 1218.89453125 C-716.80796692 1212.93444855 -709.77070445 1207.0169433 -702.6328125 1201.20703125 C-698.9393734 1198.17020355 -695.29732764 1195.0749217 -691.65405273 1191.97827148 C-688.26077141 1189.09907805 -684.83763464 1186.26248888 -681.3828125 1183.45703125 C-677.13638868 1180.00178974 -672.96734956 1176.46755291 -668.8203125 1172.89453125 C-663.80711762 1168.57524169 -658.7349393 1164.34356006 -653.59765625 1160.171875 C-650.47634983 1157.61249153 -647.39577826 1155.00863209 -644.3203125 1152.39453125 C-640.37380769 1149.04005998 -636.40389178 1145.72231296 -632.3828125 1142.45703125 C-628.13638868 1139.00178974 -623.96734956 1135.46755291 -619.8203125 1131.89453125 C-614.80711762 1127.57524169 -609.7349393 1123.34356006 -604.59765625 1119.171875 C-601.47634883 1116.61249071 -598.3958122 1114.00859334 -595.3203125 1111.39453125 C-591.35127707 1108.02169536 -587.36014229 1104.6827648 -583.3203125 1101.39453125 C-577.08114494 1096.31277448 -570.95139288 1091.10559019 -564.8203125 1085.89453125 C-557.80796692 1079.93444855 -550.77070445 1074.0169433 -543.6328125 1068.20703125 C-539.9393734 1065.17020355 -536.29732764 1062.0749217 -532.65405273 1058.97827148 C-529.26077141 1056.09907805 -525.83763464 1053.26248888 -522.3828125 1050.45703125 C-518.13638868 1047.00178974 -513.96734956 1043.46755291 -509.8203125 1039.89453125 C-504.80711762 1035.57524169 -499.7349393 1031.34356006 -494.59765625 1027.171875 C-491.47634983 1024.61249153 -488.39577826 1022.00863209 -485.3203125 1019.39453125 C-481.37380769 1016.04005998 -477.40389178 1012.72231296 -473.3828125 1009.45703125 C-469.13638868 1006.00178974 -464.96734956 1002.46755291 -460.8203125 998.89453125 C-455.80711762 994.57524169 -450.7349393 990.34356006 -445.59765625 986.171875 C-442.47634883 983.61249071 -439.3958122 981.00859334 -436.3203125 978.39453125 C-432.35127707 975.02169536 -428.36014229 971.6827648 -424.3203125 968.39453125 C-418.08114494 963.31277448 -411.95139288 958.10559019 -405.8203125 952.89453125 C-398.80796692 946.93444855 -391.77070445 941.0169433 -384.6328125 935.20703125 C-380.9393734 932.17020355 -377.29732764 929.0749217 -373.65405273 925.97827148 C-370.26077141 923.09907805 -366.83763464 920.26248888 -363.3828125 917.45703125 C-359.13638868 914.00178974 -354.96734956 910.46755291 -350.8203125 906.89453125 C-345.80711762 902.57524169 -340.7349393 898.34356006 -335.59765625 894.171875 C-332.47634983 891.61249153 -329.39577826 889.00863209 -326.3203125 886.39453125 C-322.37380769 883.04005998 -318.40389178 879.72231296 -314.3828125 876.45703125 C-310.13638868 873.00178974 -305.96734956 869.46755291 -301.8203125 865.89453125 C-296.80711762 861.57524169 -291.7349393 857.34356006 -286.59765625 853.171875 C-283.47634883 850.61249071 -280.3958122 848.00859334 -277.3203125 845.39453125 C-273.35127707 842.02169536 -269.36014229 838.6827648 -265.3203125 835.39453125 C-259.08114494 830.31277448 -252.95139288 825.10559019 -246.8203125 819.89453125 C-239.80796692 813.93444855 -232.77070445 808.0169433 -225.6328125 802.20703125 C-221.9393734 799.17020355 -218.29732764 796.0749217 -214.65405273 792.97827148 C-211.26077141 790.09907805 -207.83763464 787.26248888 -204.3828125 784.45703125 C-200.13638868 781.00178974 -195.96734956 777.46755291 -191.8203125 773.89453125 C-186.80711762 769.57524169 -181.7349393 765.34356006 -176.59765625 761.171875 C-173.47634983 758.61249153 -170.39577826 756.00863209 -167.3203125 753.39453125 C-163.37380769 750.04005998 -159.40389178 746.72231296 -155.3828125 743.45703125 C-151.13638868 740.00178974 -146.96734956 736.46755291 -142.8203125 732.89453125 C-137.80711762 728.57524169 -132.7349393 724.34356006 -127.59765625 720.171875 C-124.47634883 717.61249071 -121.3958122 715.00859334 -118.3203125 712.39453125 C-114.35127707 709.02169536 -110.36014229 705.6827648 -106.3203125 702.39453125 C-100.08114494 697.31277448 -93.95139288 692.10559019 -87.8203125 686.89453125 C-85.61294094 685.01839481 -83.40453105 683.14349235 -81.1953125 681.26953125 C-80.65841797 680.81296143 -80.12152344 680.3563916 -79.56835938 679.88598633 C-76.07757871 676.92698771 -72.52520685 674.05823126 -68.9453125 671.20703125 C-55.18881652 659.88284325 -48.7924611 646.28284565 -46.54296875 628.73046875 C-45.64150793 611.78300527 -54.81420818 596.01370818 -65.0625 583.3515625 C-68.24405833 579.41672006 -71.18568543 575.31886223 -74.1328125 571.20703125 C-74.68098633 570.44463135 -75.22916016 569.68223145 -75.79394531 568.89672852 C-76.91379859 567.33856532 -78.03293524 565.77988684 -79.15136719 564.22070312 C-81.84798882 560.46215852 -84.55154314 556.70863365 -87.2578125 552.95703125 C-87.79124268 552.21751221 -88.32467285 551.47799316 -88.87426758 550.71606445 C-92.82344333 545.25111517 -96.81406666 539.81774163 -100.8203125 534.39453125 C-108.09973872 524.54045304 -115.26861574 514.60878791 -122.42480469 504.66503906 C-129.09265544 495.4030093 -135.80708289 486.17868232 -142.58959961 477.00024414 C-147.07847613 470.9190822 -151.51022063 464.79857616 -155.92578125 458.6640625 C-159.85423355 453.21369163 -163.82745771 447.79786047 -167.8203125 442.39453125 C-175.09990764 432.54058005 -182.26861763 422.60878529 -189.42480469 412.66503906 C-196.09265544 403.4030093 -202.80708289 394.17868232 -209.58959961 385.00024414 C-214.07847613 378.9190822 -218.51022063 372.79857616 -222.92578125 366.6640625 C-226.85423355 361.21369163 -230.82745771 355.79786047 -234.8203125 350.39453125 C-242.09990764 340.54058005 -249.26861763 330.60878529 -256.42480469 320.66503906 C-262.5127 312.20860089 -268.62899991 303.77564216 -274.8203125 295.39453125 C-280.45776993 287.7631679 -286.03778277 280.09274221 -291.578125 272.390625 C-293.80958101 269.28956745 -296.05596102 266.20003823 -298.3125 263.1171875 C-312.12289067 244.22100409 -321.67432151 227.6949359 -318.359375 203.53515625 C-313.85335117 183.49660322 -300.14427162 171.01632444 -284.1328125 159.45703125 C-277.13030583 154.3517282 -270.19926206 149.1651002 -263.3203125 143.89453125 C-255.93420859 138.24059374 -248.48835933 132.67982308 -240.984375 127.18359375 C-235.04359817 122.82176093 -229.1727799 118.37398577 -223.3203125 113.89453125 C-216.70083968 108.82801393 -210.04521792 103.82026961 -203.3203125 98.89453125 C-195.62583001 93.25734096 -188.02282094 87.50811328 -180.4453125 81.71484375 C-174.62501342 77.26554845 -168.77959367 72.85260325 -162.91064453 68.46777344 C-157.41475063 64.35516224 -151.96092503 60.18862601 -146.5078125 56.01953125 C-139.0577636 50.3268745 -131.54896822 44.72432341 -123.98510742 39.18408203 C-118.04402749 34.82215163 -112.17324351 30.37386996 -106.3203125 25.89453125 C-97.2580977 18.96494652 -88.13924817 12.12044585 -78.90966797 5.41503906 C-77.5799949 4.44738262 -76.25316402 3.47579956 -74.93017578 2.49902344 C-51.85493904 -14.52128141 -24.08766089 -17.98233964 0 0 Z " fill="#FFFFFF" transform="translate(2391.8203125,666.10546875)"/>
<path d="M0 0 C15.69444911 0.30833888 30.23155636 6.26680448 41.4375 17.25 C45.71816669 22.02298798 49.5802383 27.1341048 53.4375 32.25 C53.93008301 32.9006543 54.42266602 33.55130859 54.93017578 34.22167969 C57.42883393 37.5273937 59.91229438 40.84408529 62.38671875 44.16796875 C65.45415123 48.28315345 68.56517912 52.36386936 71.6875 56.4375 C72.77996384 57.86326905 73.87241139 59.28905058 74.96484375 60.71484375 C75.80764893 61.81481689 75.80764893 61.81481689 76.66748047 62.93701172 C80.54769242 68.00751214 84.41386166 73.08873098 88.28198242 78.16845703 C91.68028798 82.63114059 95.08004509 87.09269095 98.484375 91.55078125 C105.04924785 100.15118709 111.5867213 108.76976399 118.0625 117.4375 C123.49059987 124.70135458 129.01143658 131.88568021 134.59472656 139.03076172 C138.43016437 143.94225897 142.19934368 148.89668827 145.921875 153.89453125 C149.2670131 158.37292593 152.6700833 162.80739651 156.0625 167.25 C161.43335017 174.28493325 166.76625988 181.34625341 172.0625 188.4375 C177.4904733 195.70144743 183.01143873 202.88568297 188.59472656 210.03076172 C192.43128107 214.94368896 196.20104267 219.8999898 199.92578125 224.8984375 C203.25258258 229.35181157 206.62941177 233.76724067 210 238.1875 C210.68618408 239.08758789 211.37236816 239.98767578 212.0793457 240.91503906 C215.55121947 245.46807884 219.02508766 250.01959154 222.5 254.5703125 C229.05916298 263.16458184 235.5917134 271.77644585 242.0625 280.4375 C247.49059987 287.70135458 253.01143658 294.88568021 258.59472656 302.03076172 C262.43016437 306.94225897 266.19934368 311.89668827 269.921875 316.89453125 C273.2670131 321.37292593 276.6700833 325.80739651 280.0625 330.25 C285.43335017 337.28493325 290.76625988 344.34625341 296.0625 351.4375 C301.4904733 358.70144743 307.01143873 365.88568297 312.59472656 373.03076172 C316.43128107 377.94368896 320.20104267 382.8999898 323.92578125 387.8984375 C327.25258258 392.35181157 330.62941177 396.76724067 334 401.1875 C334.68618408 402.08758789 335.37236816 402.98767578 336.0793457 403.91503906 C339.55121947 408.46807884 343.02508766 413.01959154 346.5 417.5703125 C353.05916298 426.16458184 359.5917134 434.77644585 366.0625 443.4375 C371.49059987 450.70135458 377.01143658 457.88568021 382.59472656 465.03076172 C386.43016437 469.94225897 390.19934368 474.89668827 393.921875 479.89453125 C397.2670131 484.37292593 400.6700833 488.80739651 404.0625 493.25 C410.06270626 501.10928657 416.00901276 509.00661418 421.92333984 516.93066406 C425.52783372 521.74616895 429.18851131 526.51028012 432.90820312 531.23730469 C460.6210098 566.47911208 460.6210098 566.47911208 458.4375 589.25 C455.45878945 611.50272001 444.17731936 624.59030741 427.4375 638.25 C426.48359375 639.03375 425.5296875 639.8175 424.546875 640.625 C422.76959272 642.0800849 420.9896507 643.53192732 419.20703125 644.98046875 C413.89308334 649.33505794 408.67223234 653.80078435 403.4375 658.25 C396.42515442 664.2100827 389.38789195 670.12758795 382.25 675.9375 C378.5565609 678.9743277 374.91451514 682.06960955 371.27124023 685.16625977 C367.87795891 688.0454532 364.45482214 690.88204237 361 693.6875 C356.75357618 697.14274151 352.58453706 700.67697834 348.4375 704.25 C343.42430512 708.56928956 338.3521268 712.80097119 333.21484375 716.97265625 C330.09353733 719.53203972 327.01296576 722.13589916 323.9375 724.75 C319.99099519 728.10447127 316.02107928 731.42221829 312 734.6875 C307.75357618 738.14274151 303.58453706 741.67697834 299.4375 745.25 C294.42430512 749.56928956 289.3521268 753.80097119 284.21484375 757.97265625 C281.09353733 760.53203972 278.01296576 763.13589916 274.9375 765.75 C270.99099519 769.10447127 267.02107928 772.42221829 263 775.6875 C258.75357618 779.14274151 254.58453706 782.67697834 250.4375 786.25 C245.42430512 790.56928956 240.3521268 794.80097119 235.21484375 798.97265625 C232.09353733 801.53203972 229.01296576 804.13589916 225.9375 806.75 C221.99099519 810.10447127 218.02107928 813.42221829 214 816.6875 C209.75357618 820.14274151 205.58453706 823.67697834 201.4375 827.25 C196.42430512 831.56928956 191.3521268 835.80097119 186.21484375 839.97265625 C183.09353733 842.53203972 180.01296576 845.13589916 176.9375 847.75 C172.99099519 851.10447127 169.02107928 854.42221829 165 857.6875 C160.75357618 861.14274151 156.58453706 864.67697834 152.4375 868.25 C147.42430512 872.56928956 142.3521268 876.80097119 137.21484375 880.97265625 C134.09353733 883.53203972 131.01296576 886.13589916 127.9375 888.75 C123.99099519 892.10447127 120.02107928 895.42221829 116 898.6875 C111.75357618 902.14274151 107.58453706 905.67697834 103.4375 909.25 C98.42430512 913.56928956 93.3521268 917.80097119 88.21484375 921.97265625 C85.09353733 924.53203972 82.01296576 927.13589916 78.9375 929.75 C74.99099519 933.10447127 71.02107928 936.42221829 67 939.6875 C62.75357618 943.14274151 58.58453706 946.67697834 54.4375 950.25 C49.42430512 954.56928956 44.3521268 958.80097119 39.21484375 962.97265625 C36.09353733 965.53203972 33.01296576 968.13589916 29.9375 970.75 C25.99099519 974.10447127 22.02107928 977.42221829 18 980.6875 C13.75357618 984.14274151 9.58453706 987.67697834 5.4375 991.25 C0.42430512 995.56928956 -4.6478732 999.80097119 -9.78515625 1003.97265625 C-12.90646267 1006.53203972 -15.98703424 1009.13589916 -19.0625 1011.75 C-23.00900481 1015.10447127 -26.97892072 1018.42221829 -31 1021.6875 C-35.24642382 1025.14274151 -39.41546294 1028.67697834 -43.5625 1032.25 C-48.57569488 1036.56928956 -53.6478732 1040.80097119 -58.78515625 1044.97265625 C-61.90646267 1047.53203972 -64.98703424 1050.13589916 -68.0625 1052.75 C-72.00900481 1056.10447127 -75.97892072 1059.42221829 -80 1062.6875 C-84.24642382 1066.14274151 -88.41546294 1069.67697834 -92.5625 1073.25 C-97.57569488 1077.56928956 -102.6478732 1081.80097119 -107.78515625 1085.97265625 C-110.90646267 1088.53203972 -113.98703424 1091.13589916 -117.0625 1093.75 C-121.00900481 1097.10447127 -124.97892072 1100.42221829 -129 1103.6875 C-133.24642382 1107.14274151 -137.41546294 1110.67697834 -141.5625 1114.25 C-146.57846403 1118.57167542 -151.65425108 1122.80479041 -156.79296875 1126.98046875 C-162.10691666 1131.33505794 -167.32776766 1135.80078435 -172.5625 1140.25 C-179.57484558 1146.2100827 -186.61210805 1152.12758795 -193.75 1157.9375 C-197.4434391 1160.9743277 -201.08548486 1164.06960955 -204.72875977 1167.16625977 C-208.12204109 1170.0454532 -211.54517786 1172.88204237 -215 1175.6875 C-219.24642382 1179.14274151 -223.41546294 1182.67697834 -227.5625 1186.25 C-232.57213984 1190.56622659 -237.6414345 1194.79414515 -242.7734375 1198.96484375 C-248.09455814 1203.32458545 -253.32676837 1207.78842324 -258.5625 1212.25 C-259.33980469 1212.90097656 -260.11710937 1213.55195312 -260.91796875 1214.22265625 C-273.20162279 1224.65307041 -280.41503373 1237.03097842 -282.5625 1253.25 C-283.03079769 1262.25971441 -281.88947445 1271.21069097 -280.95848083 1280.15588379 C-280.78282826 1281.8798832 -280.60762052 1283.60392798 -280.43281549 1285.32801354 C-279.95069441 1290.07030146 -279.46226705 1294.81192184 -278.97282013 1299.55345848 C-278.44130154 1304.71353837 -277.9156753 1309.87421895 -277.38930702 1315.03482628 C-276.46508795 1324.0880212 -275.5371158 1333.14082532 -274.60670662 1342.19338608 C-273.22077737 1355.67824997 -271.84072436 1369.16371072 -270.46189597 1382.64930229 C-268.13656925 1405.39056983 -265.80661544 1428.13136025 -263.47406006 1450.87188721 C-261.15891409 1473.44289416 -258.8458792 1496.01411588 -256.53570557 1518.58563232 C-256.42793188 1519.63862347 -256.42793188 1519.63862347 -256.31798094 1520.71288715 C-255.51455183 1528.56274696 -254.7111903 1536.41261369 -253.90786219 1544.26248384 C-252.49368212 1558.08140039 -251.07927797 1571.900294 -249.66480016 1585.71918008 C-249.51401136 1587.19232706 -249.36322329 1588.66547411 -249.21243596 1590.13862124 C-246.90517627 1612.67981811 -244.59684491 1635.22090504 -242.28767877 1657.76190669 C-241.89499338 1661.59512044 -241.5023141 1665.42833481 -241.10963416 1669.26154912 C-240.99269746 1670.40304638 -240.99269746 1670.40304638 -240.8733984 1671.56760419 C-232.86237192 1749.76863049 -224.86279103 1827.97082181 -215.65840801 1918.0401283 C-214.85657647 1925.88650697 -214.05471124 1933.73288219 -213.25284169 1941.57925698 C-210.7350458 1966.21614917 -208.21729563 1990.85304604 -205.69965678 2015.48995428 C-199.93309877 2071.9198591 -194.16572698 2128.3496807 -188.39641851 2184.77930439 C-186.92679904 2199.15369261 -185.45734715 2213.52809794 -183.98815325 2227.90252967 C-183.00487736 2237.5226461 -182.02139402 2247.14274131 -181.03774133 2256.76281922 C-180.47713357 2262.24559066 -179.91661311 2267.72837099 -179.3563422 2273.21117687 C-178.8454752 2278.21049033 -178.33434 2283.20977629 -177.82299948 2288.20904134 C-177.64007036 2289.99794586 -177.45723475 2291.78685995 -177.27450936 2293.57578529 C-177.02403988 2296.02779819 -176.77322744 2298.47977576 -176.52229881 2300.93174171 C-176.44373868 2301.70091779 -176.36517854 2302.47009387 -176.28423779 2303.26257832 C-175.86902658 2307.31414025 -175.44459665 2311.36453336 -175.00863576 2315.41391826 C-174.87159686 2316.69278781 -174.87159686 2316.69278781 -174.73178951 2317.99749311 C-174.55816972 2319.61348801 -174.38296487 2321.22931379 -174.20580509 2322.84492443 C-172.13573226 2342.13614869 -174.63792726 2357.6505265 -186.21875 2373.51953125 C-196.75541214 2386.5164046 -212.29222873 2392.66991621 -228.50324631 2394.4185009 C-230.65651501 2394.63955113 -232.81061797 2394.85099449 -234.96484375 2395.0625 C-236.59004121 2395.22956729 -238.21514988 2395.39750002 -239.84017944 2395.56619263 C-244.41397687 2396.03832387 -248.98896139 2396.49793005 -253.56424332 2396.95542145 C-258.5795164 2397.45866202 -263.59376821 2397.97189683 -268.6081543 2398.48388672 C-275.59976588 2399.19686507 -282.59158165 2399.90774519 -289.58387756 2400.61398315 C-307.77802127 2402.45236203 -325.96902891 2404.32000072 -344.15890026 2406.20017624 C-360.98834249 2407.93968626 -377.81852101 2409.67195067 -394.64920521 2411.39940262 C-405.32320818 2412.49511594 -415.99690054 2413.59368607 -426.66989136 2414.69921875 C-435.92226358 2415.65749101 -445.17533481 2416.60867036 -454.42929411 2417.55149734 C-459.23542322 2418.04136783 -464.04117609 2418.53437428 -468.8461113 2419.03583145 C-473.31998493 2419.5026459 -477.79471304 2419.96021423 -482.27022374 2420.41105461 C-483.88750035 2420.5755232 -485.50445956 2420.74315538 -487.1210202 2420.91451836 C-495.65687748 2421.81736408 -504.12295993 2422.39937532 -512.71012878 2422.44674683 C-513.48539581 2422.45388643 -514.26066283 2422.46102604 -515.05942279 2422.468382 C-529.555437 2422.40348922 -542.41886432 2416.43569454 -552.875 2406.5 C-564.862233 2393.76236237 -568.79132083 2380.18304549 -570.49641418 2363.07792664 C-570.65844462 2361.55364057 -570.82159059 2360.02947276 -570.98573381 2358.50541276 C-571.43361762 2354.31064358 -571.86377031 2350.11422572 -572.29017165 2345.91722509 C-572.65964161 2342.29858031 -573.03831771 2338.68091981 -573.41670931 2335.06319882 C-574.72455204 2322.55123963 -575.99587781 2310.0356387 -577.26345633 2297.51954737 C-577.88103339 2291.4265906 -578.50121282 2285.33389857 -579.12104511 2279.24117088 C-580.20275353 2268.60496225 -581.28288383 2257.96859446 -582.36190796 2247.33211327 C-583.51618643 2235.95392379 -584.67146995 2224.575837 -585.82794189 2213.19787025 C-585.90134094 2212.47572882 -585.97473999 2211.75358738 -586.05036325 2211.00956287 C-586.42465766 2207.32709569 -586.79896964 2203.6446303 -587.17328899 2199.96216566 C-589.78696823 2174.2491667 -592.39883555 2148.535984 -595.00955925 2122.8226848 C-597.75703331 2095.76251714 -600.50543677 2068.70244415 -603.25527954 2041.64251709 C-603.33836088 2040.82495108 -603.42144222 2040.00738506 -603.50704117 2039.16504432 C-604.60458662 2028.36464003 -605.70219392 2017.56424203 -606.79982044 2006.76384598 C-608.08304 1994.13724585 -609.36621424 1981.51064111 -610.64939692 1968.88403722 C-611.08069943 1964.63999309 -611.51200375 1960.39594913 -611.94331186 1956.15190557 C-614.30495947 1932.91343625 -616.66631072 1909.67493685 -619.02740413 1886.43641122 C-627.64529682 1801.6167971 -636.2682527 1716.79770001 -660.98713719 1473.92805975 C-663.30621797 1451.14693813 -665.62505469 1428.36579169 -667.94369507 1405.58462524 C-668.54824934 1399.64474447 -669.15280369 1393.7048637 -669.75736046 1387.76498318 C-669.8315599 1387.03596002 -669.90575934 1386.30693687 -669.98220725 1385.55582211 C-671.94261351 1366.29450761 -673.90321506 1347.033213 -675.86387956 1327.77192479 C-676.07264114 1325.72107894 -676.28140266 1323.67023309 -676.49016408 1321.61938722 C-676.62808906 1320.26442995 -676.76601418 1318.90947269 -676.90393945 1317.55451545 C-678.02332741 1306.5577953 -679.14261394 1295.56106483 -680.26179238 1284.56432335 C-680.88121869 1278.47816223 -681.50076502 1272.39201336 -682.12058127 1266.30589193 C-683.17800342 1255.92229737 -684.23503415 1245.53866532 -685.28825999 1235.15464416 C-685.84405548 1229.67540516 -686.4005043 1224.19623269 -686.95736694 1218.71710205 C-687.06539105 1217.65418208 -687.17341515 1216.59126211 -687.28471272 1215.49613244 C-688.80102933 1200.58919851 -690.35199701 1185.68618646 -691.92620235 1170.78526081 C-692.57193167 1164.6624227 -693.21204286 1158.53899414 -693.85213912 1152.41556489 C-694.34859162 1147.67275254 -694.84925266 1142.93047166 -695.36070955 1138.18925214 C-701.09235235 1085.01941367 -701.09235235 1085.01941367 -694.5625 1070.25 C-694.18480469 1069.33605469 -693.80710937 1068.42210937 -693.41796875 1067.48046875 C-687.82820515 1055.67610392 -677.13295452 1047.1905462 -666.94433594 1039.4206543 C-662.4150587 1035.9647932 -658.09503975 1032.31889607 -653.8125 1028.5625 C-649.06711089 1024.40728264 -644.27859132 1020.35539348 -639.32421875 1016.44921875 C-633.42346625 1011.75031683 -627.63461562 1006.91204471 -621.81787109 1002.10986328 C-619.59575252 1000.27742127 -617.37069649 998.44861665 -615.14453125 996.62109375 C-608.6016324 991.2476702 -602.07385574 985.8611392 -595.625 980.375 C-591.27614726 976.6758395 -586.86749057 973.06754906 -582.39453125 969.51953125 C-576.48249556 964.78174817 -570.66017545 959.93314636 -564.81787109 955.10986328 C-562.59575252 953.27742127 -560.37069649 951.44861665 -558.14453125 949.62109375 C-551.6016324 944.2476702 -545.07385574 938.8611392 -538.625 933.375 C-534.27614726 929.6758395 -529.86749057 926.06754906 -525.39453125 922.51953125 C-519.48249556 917.78174817 -513.66017545 912.93314636 -507.81787109 908.10986328 C-505.59575252 906.27742127 -503.37069649 904.44861665 -501.14453125 902.62109375 C-494.6016324 897.2476702 -488.07385574 891.8611392 -481.625 886.375 C-477.27614726 882.6758395 -472.86749057 879.06754906 -468.39453125 875.51953125 C-462.48249556 870.78174817 -456.66017545 865.93314636 -450.81787109 861.10986328 C-448.59575252 859.27742127 -446.37069649 857.44861665 -444.14453125 855.62109375 C-437.6016324 850.2476702 -431.07385574 844.8611392 -424.625 839.375 C-420.27614726 835.6758395 -415.86749057 832.06754906 -411.39453125 828.51953125 C-405.48249556 823.78174817 -399.66017545 818.93314636 -393.81787109 814.10986328 C-391.59575252 812.27742127 -389.37069649 810.44861665 -387.14453125 808.62109375 C-380.6016324 803.2476702 -374.07385574 797.8611392 -367.625 792.375 C-363.27614726 788.6758395 -358.86749057 785.06754906 -354.39453125 781.51953125 C-348.48249556 776.78174817 -342.66017545 771.93314636 -336.81787109 767.10986328 C-334.59575252 765.27742127 -332.37069649 763.44861665 -330.14453125 761.62109375 C-323.6016324 756.2476702 -317.07385574 750.8611392 -310.625 745.375 C-306.27614726 741.6758395 -301.86749057 738.06754906 -297.39453125 734.51953125 C-291.48249556 729.78174817 -285.66017545 724.93314636 -279.81787109 720.10986328 C-277.59575252 718.27742127 -275.37069649 716.44861665 -273.14453125 714.62109375 C-266.6016324 709.2476702 -260.07385574 703.8611392 -253.625 698.375 C-249.27614726 694.6758395 -244.86749057 691.06754906 -240.39453125 687.51953125 C-234.48249556 682.78174817 -228.66017545 677.93314636 -222.81787109 673.10986328 C-220.59575252 671.27742127 -218.37069649 669.44861665 -216.14453125 667.62109375 C-209.6016324 662.2476702 -203.07385574 656.8611392 -196.625 651.375 C-192.27614726 647.6758395 -187.86749057 644.06754906 -183.39453125 640.51953125 C-177.48249556 635.78174817 -171.66017545 630.93314636 -165.81787109 626.10986328 C-163.59575252 624.27742127 -161.37069649 622.44861665 -159.14453125 620.62109375 C-152.6016324 615.2476702 -146.07385574 609.8611392 -139.625 604.375 C-135.28112079 600.68007002 -130.87738186 597.07597536 -126.41015625 593.53125 C-120.43640289 588.74569175 -114.5470053 583.85746464 -108.65478516 578.97216797 C-106.72390067 577.38284952 -104.77778908 575.81518493 -102.82421875 574.25390625 C-90.88864558 564.62095106 -81.28712676 551.98721921 -79.5625 536.25 C-78.25256403 515.45476643 -85.04796317 500.98787216 -97.96484375 485.22167969 C-100.89039361 481.61123643 -103.71908028 477.92520526 -106.5625 474.25 C-110.71347249 468.90422056 -114.87550321 463.56761016 -119.0625 458.25 C-123.24950345 452.93238137 -127.41031802 447.59484789 -131.5625 442.25 C-137.53564584 434.56203286 -143.53930398 426.89878722 -149.5625 419.25 C-156.19344911 410.82943414 -162.7949962 402.38691374 -169.37036133 393.92285156 C-172.92088894 389.35448985 -176.48318531 384.79583587 -180.0625 380.25 C-184.85743471 374.16029064 -189.61608699 368.04279083 -194.37109375 361.921875 C-197.92140456 357.35386022 -201.48343702 352.79551618 -205.0625 348.25 C-209.85743471 342.16029064 -214.61608699 336.04279083 -219.37109375 329.921875 C-222.92140456 325.35386022 -226.48343702 320.79551618 -230.0625 316.25 C-234.85743471 310.16029064 -239.61608699 304.04279083 -244.37109375 297.921875 C-247.4862941 293.91369599 -250.60708146 289.91023556 -253.74731445 285.92163086 C-254.62254487 284.80919302 -255.49608811 283.69542564 -256.36791992 282.58032227 C-258.92899593 279.30723613 -261.52238156 276.06427603 -264.14453125 272.83984375 C-270.96893293 264.37362173 -276.81816957 256.56570552 -280.5625 246.25 C-280.995625 245.074375 -281.42875 243.89875 -281.875 242.6875 C-285.238477 225.87011501 -282.93604183 209.87016778 -273.5625 195.375 C-269.07584321 188.87444613 -264.38190855 184.04165155 -258.0625 179.375 C-256.5388858 178.23070399 -255.01545678 177.08616138 -253.4921875 175.94140625 C-252.69006836 175.34215332 -251.88794922 174.74290039 -251.06152344 174.12548828 C-247.63364131 171.55290226 -244.23396207 168.9441509 -240.83203125 166.33740234 C-232.52918616 159.97996169 -224.1630903 153.71862181 -215.72705078 147.53930664 C-209.78599078 143.17755479 -203.91510927 138.7295631 -198.0625 134.25 C-190.67608208 128.59646605 -183.23055534 123.03529806 -175.7265625 117.5390625 C-168.89021275 112.51968278 -162.15031756 107.3792168 -155.41601562 102.22412109 C-149.50998867 97.7114174 -143.55670594 93.26978752 -137.5625 88.875 C-130.78454454 83.90413204 -124.08947178 78.84840546 -117.44335938 73.70214844 C-105.97195071 64.84545857 -94.41956861 56.10389129 -82.72802734 47.54003906 C-76.78665147 43.17801627 -70.9156477 38.72953745 -65.0625 34.25 C-58.18371364 28.98967671 -51.27790864 23.77021846 -44.3125 18.625 C-43.56291016 18.06941406 -42.81332031 17.51382813 -42.04101562 16.94140625 C-39.89305854 15.36072521 -37.73319002 13.79929897 -35.5625 12.25 C-34.8104126 11.71189697 -34.0583252 11.17379395 -33.28344727 10.61938477 C-23.15346317 3.59272523 -12.18047894 0.85477045 0 0 Z " fill="#FFFFFF" transform="translate(1828.5625,694.75)"/>
<path d="M0 0 C5.18738777 4.84907988 9.37206672 10.33747812 13.57373047 16.02880859 C16.26200428 19.62636502 19.04569254 23.15024192 21.8125 26.6875 C26.94824618 33.27679859 32.03906216 39.89873776 37.10473633 46.54199219 C41.04016947 51.69716554 45.01212783 56.82281185 49 61.9375 C54.07316176 68.44413793 59.10267161 74.98212287 64.10546875 81.54296875 C68.04067507 86.69780318 72.01237806 91.82313278 76 96.9375 C81.07316176 103.44413793 86.10267161 109.98212287 91.10546875 116.54296875 C95.04067538 121.69780359 99.01241263 126.82310544 103 131.9375 C109.22928267 139.92794564 115.39127433 147.96812359 121.53759766 156.02246094 C127.58678327 163.94396543 133.68698773 171.82496449 139.8125 179.6875 C144.94685374 186.2778956 150.03905023 192.89872212 155.10473633 199.54199219 C159.04016947 204.69716554 163.01212783 209.82281185 167 214.9375 C172.07316176 221.44413793 177.10267161 227.98212287 182.10546875 234.54296875 C186.04067538 239.69780359 190.01241263 244.82310544 194 249.9375 C200.22928267 257.92794564 206.39127433 265.96812359 212.53759766 274.02246094 C218.58678327 281.94396543 224.68698773 289.82496449 230.8125 297.6875 C235.94685374 304.2778956 241.03905023 310.89872212 246.10473633 317.54199219 C250.04016947 322.69716554 254.01212783 327.82281185 258 332.9375 C263.07316176 339.44413793 268.10267161 345.98212287 273.10546875 352.54296875 C277.04067538 357.69780359 281.01241263 362.82310544 285 367.9375 C291.22802995 375.92633875 297.38840771 383.96512992 303.53320312 392.01806641 C305.6819294 394.829865 307.84066058 397.63384155 310 400.4375 C310.78890625 401.46746094 311.5778125 402.49742187 312.390625 403.55859375 C314.33590475 406.0906539 316.31223457 408.59634852 318.296875 411.09765625 C331.49601561 427.84408925 338.73868694 443.3075964 337 464.9375 C334.84599281 481.31571685 325.07842122 494.60286596 312.4375 504.75 C311.6125 505.38292969 310.7875 506.01585937 309.9375 506.66796875 C306.20329349 509.55304053 302.57333417 512.55499047 298.9375 515.5625 C297.45710958 516.78394911 295.97663975 518.00530198 294.49609375 519.2265625 C293.37823486 520.14937012 293.37823486 520.14937012 292.23779297 521.09082031 C288.66088205 524.0425718 285.08031669 526.98988133 281.5 529.9375 C280.08331453 531.10414383 278.66664789 532.27081053 277.25 533.4375 C207.125 591.1875 137 648.9375 -226.37670898 948.1887207 C-227.78792358 949.35102151 -229.19889519 950.5136174 -230.60961914 951.67651367 C-234.23272785 954.66249108 -237.86040534 957.64262903 -241.49609375 960.61328125 C-245.06432114 963.53072192 -248.61972801 966.46294982 -252.16259766 969.41113281 C-253.78355941 970.75769843 -255.4126536 972.09446149 -257.04296875 973.4296875 C-268.54478465 983.20884111 -275.74239549 996.84006017 -277 1011.9375 C-276.98294516 1014.85789017 -276.82477912 1017.76408249 -276.65073586 1020.67890072 C-276.57980533 1021.9307858 -276.57980533 1021.9307858 -276.50744186 1023.2079615 C-275.98901271 1031.87458852 -275.16105008 1040.50206801 -274.27572632 1049.1375885 C-274.0992564 1050.89252045 -273.92318588 1052.6474926 -273.74747235 1054.40250045 C-273.26711945 1059.18875715 -272.78117473 1063.97443142 -272.2942553 1068.76002392 C-271.76378888 1073.98374727 -271.2386549 1079.20800719 -270.71283054 1084.43219948 C-269.79100003 1093.5835915 -268.86583177 1102.73464123 -267.9384594 1111.88547325 C-266.55697429 1125.51752523 -265.18082222 1139.15011196 -263.80577307 1152.78281445 C-261.48613224 1175.77920754 -259.16240742 1198.77518569 -256.83639526 1221.77093506 C-254.52784076 1244.59432375 -252.2212377 1267.41790838 -249.91726685 1290.24176025 C-249.84552488 1290.95245409 -249.7737829 1291.66314793 -249.69986693 1292.39537795 C-248.82414118 1301.07059852 -247.94850428 1309.74582806 -247.0729014 1318.42106104 C-245.73419781 1331.68453143 -244.39532985 1344.94798522 -243.05644809 1358.21143763 C-242.83051624 1360.44960844 -242.6045871 1362.68777953 -242.37865827 1364.92595065 C-240.15131461 1386.99108957 -237.92306743 1409.05613712 -235.69427045 1431.12112929 C-227.71919343 1510.07442225 -219.75407519 1589.02871289 -208.65098399 1699.25352728 C-208.4105074 1701.64104498 -208.17002922 1704.02856253 -207.92955065 1706.41608003 C-204.93883296 1736.10853497 -201.94834535 1765.80101308 -198.95817947 1795.4935236 C-198.8816401 1796.2535633 -198.80510072 1797.013603 -198.72624196 1797.79667421 C-198.49467351 1800.09616032 -198.26310516 1802.39564643 -198.03153682 1804.69513255 C-197.72368183 1807.75214853 -197.41582661 1810.80916449 -197.10797119 1813.86618042 C-197.03196899 1814.62088559 -196.9559668 1815.37559075 -196.8776615 1816.15316577 C-193.68333737 1847.87289771 -190.48819251 1879.59254694 -187.2928214 1911.31217342 C-186.34624201 1920.70862509 -185.39968581 1930.1050791 -184.45314312 1939.50153446 C-184.38253834 1940.20243712 -184.31193356 1940.90333977 -184.23918925 1941.6254819 C-183.53770134 1948.58924442 -182.83621627 1955.55300722 -182.13473314 1962.51677023 C-181.86024703 1965.24164851 -181.5857607 1967.96652677 -181.31127426 1970.69140502 C-181.17536358 1972.04061597 -181.03945298 1973.38982693 -180.90354245 1974.73903789 C-180.03889924 1983.32251907 -179.17423261 1991.90599789 -178.30954503 2000.4894746 C-177.06918789 2012.80210629 -175.82889777 2025.11474473 -174.58874898 2037.4273974 C-174.0302364 2042.97249789 -173.47169112 2048.51759508 -172.9130466 2054.06268227 C-172.8085753 2055.09971634 -172.70410401 2056.13675041 -172.59646691 2057.20520975 C-172.39109309 2059.24376024 -172.1856936 2061.28230813 -171.98026703 2063.3208533 C-171.49979449 2068.08963085 -171.01993772 2072.85846848 -170.5416522 2077.6274659 C-169.79720167 2085.04716676 -169.052055 2092.46668919 -168.28056289 2099.88363522 C-168.05873367 2102.01778328 -167.83863961 2104.15210291 -167.61911494 2106.28648913 C-167.36113955 2108.78865448 -167.0997595 2111.29047276 -166.83391422 2113.79181421 C-164.9139516 2132.51991708 -167.44589612 2150.34078218 -179.62890625 2165.3359375 C-191.79621768 2179.02680059 -207.89999461 2183.71641624 -225.54467773 2185.49609375 C-226.94188194 2185.64159404 -228.33902909 2185.78764311 -229.73612404 2185.93418884 C-233.58778221 2186.33653567 -237.44022001 2186.73092285 -241.29283834 2187.12395477 C-245.47932618 2187.55236422 -249.66507844 2187.98785529 -253.85093689 2188.42236328 C-261.24090175 2189.18840536 -268.63137005 2189.94944023 -276.02215576 2190.70751953 C-284.17053049 2191.54333764 -292.31850749 2192.38291111 -300.46612549 2193.22607422 C-301.5166973 2193.33478537 -302.56726912 2193.44349651 -303.64967644 2193.55550194 C-304.70837657 2193.66505526 -305.7670767 2193.77460857 -306.85785866 2193.88748169 C-329.30961337 2196.21074874 -351.76307409 2198.51694103 -374.21814919 2200.80789185 C-387.09962761 2202.12229501 -399.98041113 2203.44315558 -412.86041361 2204.77194595 C-422.11074336 2205.7257181 -431.36180956 2206.67212313 -440.61344236 2207.61317062 C-446.06897932 2208.16829352 -451.5241555 2208.72649427 -456.97853279 2209.29290771 C-462.05690787 2209.82014804 -467.13614366 2210.33816231 -472.21615219 2210.84941673 C-474.05818206 2211.036356 -475.89989278 2211.22647642 -477.74121284 2211.42028236 C-486.96145223 2212.38886608 -496.09976347 2213.09522702 -505.3759613 2213.12036133 C-506.15570503 2213.123026 -506.93544876 2213.12569067 -507.73882109 2213.12843609 C-521.84998842 2213.01585359 -535.87027804 2206.77413778 -546 2196.9375 C-556.25150614 2185.33932639 -561.46829431 2172.38426628 -562.93859482 2157.06659794 C-563.05455396 2155.93402561 -563.05455396 2155.93402561 -563.17285571 2154.77857303 C-563.42990929 2152.25371699 -563.6785278 2149.72810353 -563.92718506 2147.20240784 C-564.11258851 2145.36386356 -564.29851262 2143.52537172 -564.48490971 2141.68692791 C-564.99711518 2136.61995854 -565.50191539 2131.55227434 -566.00554745 2126.48444663 C-566.55428456 2120.97603174 -567.10990322 2115.46831044 -567.66466618 2109.96049976 C-568.63645265 2100.30290332 -569.603848 2090.64487481 -570.56839943 2080.98655319 C-572.00163991 2066.63542618 -573.44172685 2052.28499112 -574.88329429 2037.93469858 C-577.30878774 2013.78899618 -579.72869563 1989.64273666 -582.14572144 1965.4961853 C-584.55051117 1941.47215489 -586.95788523 1917.44838557 -589.36868286 1893.42495728 C-589.44380272 1892.67638631 -589.51892258 1891.92781534 -589.5963188 1891.15656041 C-590.51249523 1882.02691375 -591.42878124 1872.8972781 -592.34510196 1863.76764593 C-593.7409187 1849.86054145 -595.13648745 1835.95341208 -596.53201228 1822.04627831 C-596.68852506 1820.48654904 -596.84503882 1818.92681988 -597.00155354 1817.36709081 C-599.38829669 1793.58226586 -601.77384998 1769.79732181 -604.15844616 1746.01228152 C-604.56150537 1741.9919902 -604.96457161 1737.97169959 -605.36763734 1733.95140892 C-605.44751627 1733.15467353 -605.52739521 1732.35793814 -605.60969473 1731.53705925 C-613.38714509 1653.96261932 -621.17610114 1576.38934279 -630.79296875 1480.7578125 C-630.94420991 1479.25391197 -631.09545103 1477.75001143 -631.24669212 1476.24611089 C-634.00739579 1448.79448633 -636.76833574 1421.34288553 -639.52962484 1393.89131986 C-640.18605563 1387.36536245 -640.84248118 1380.83940452 -641.49890137 1374.31344604 C-641.57066932 1373.59994778 -641.64243728 1372.88644952 -641.71638002 1372.1513301 C-644.17256622 1347.73248143 -646.6279362 1323.31355078 -649.08271897 1298.89456099 C-649.15000895 1298.22519294 -649.21729893 1297.55582488 -649.286628 1296.86617295 C-649.3538273 1296.19770644 -649.42102661 1295.52923993 -649.49026226 1294.84051685 C-649.55737244 1294.1729371 -649.62448261 1293.50535735 -649.69362643 1292.81754791 C-649.82892296 1291.47168157 -649.96421917 1290.12581519 -650.09951507 1288.77994879 C-651.10536823 1278.77417941 -652.1114045 1268.76842845 -653.1175518 1258.76268864 C-653.64765774 1253.49089671 -654.17775759 1248.21910417 -654.70785522 1242.9473114 C-654.83830576 1241.65000891 -654.9687563 1240.35270643 -655.10315989 1239.01609174 C-656.65391083 1223.5938358 -658.20373695 1208.17148746 -659.75211667 1192.74899327 C-661.13722032 1178.95286707 -662.52308194 1165.15681713 -663.90966797 1151.36083984 C-664.03346294 1150.12904851 -664.15725792 1148.89725717 -664.28480425 1147.62813883 C-667.89680651 1111.69159843 -671.54063619 1075.75840265 -675.20893283 1039.82757491 C-676.24506375 1029.67860852 -677.2793583 1019.52945664 -678.31200886 1009.38013554 C-678.37902305 1008.72154221 -678.44603724 1008.06294889 -678.51508216 1007.38439819 C-679.11811857 1001.45791936 -679.72105966 995.53143085 -680.32371304 989.60491306 C-681.86963042 974.40268969 -683.42175554 959.20113527 -684.98541342 944.00072597 C-685.94797768 934.63863898 -686.90302587 925.27580452 -687.85225101 915.91235574 C-688.39701413 910.54141113 -688.94522806 905.17087926 -689.50299191 899.80126786 C-690.01460098 894.87570501 -690.51623871 889.94922585 -691.01043255 885.02188615 C-691.18921839 883.25640495 -691.37148224 881.49127109 -691.55788445 879.72657778 C-692.54349033 870.37617163 -693.15976748 861.10644259 -693.20475674 851.70019817 C-693.21141824 850.83660218 -693.21807974 849.97300619 -693.22494311 849.08324062 C-693.153142 834.29718486 -687.49785984 821.3053902 -677.1875 810.6875 C-673.25197649 806.96438856 -669.15850615 803.51155024 -664.8828125 800.1875 C-661.29418452 797.38661963 -657.77496031 794.50529334 -654.25 791.625 C-649.20405639 787.51342473 -644.12972156 783.44403761 -639 779.4375 C-631.24569677 773.3782773 -623.62332184 767.16017323 -616 760.9375 C-607.81358661 754.25519318 -599.61093609 747.60358723 -591.28417969 741.09667969 C-584.10866286 735.47700615 -577.06035472 729.70064122 -570 723.9375 C-561.81358661 717.25519318 -553.61093609 710.60358723 -545.28417969 704.09667969 C-538.10866286 698.47700615 -531.06035472 692.70064122 -524 686.9375 C-515.81358661 680.25519318 -507.61093609 673.60358723 -499.28417969 667.09667969 C-492.10866286 661.47700615 -485.06035472 655.70064122 -478 649.9375 C-469.69731918 643.16028781 -461.37595657 636.41692765 -452.93261719 629.81542969 C-448.5616464 626.39304194 -444.2527884 622.90106315 -439.96484375 619.375 C-431.37563175 612.31351345 -422.76222318 605.28365347 -414 598.4375 C-406.24581138 592.3781255 -398.62332608 586.16017669 -391 579.9375 C-382.81358661 573.25519318 -374.61093609 566.60358723 -366.28417969 560.09667969 C-359.10866286 554.47700615 -352.06035472 548.70064122 -345 542.9375 C-336.81358661 536.25519318 -328.61093609 529.60358723 -320.28417969 523.09667969 C-313.10866286 517.47700615 -306.06035472 511.70064122 -299 505.9375 C-290.81358661 499.25519318 -282.61093609 492.60358723 -274.28417969 486.09667969 C-267.10866286 480.47700615 -260.06035472 474.70064122 -253 468.9375 C-250.29283554 466.72772843 -247.58467466 464.51919294 -244.875 462.3125 C-244.21435547 461.77415527 -243.55371094 461.23581055 -242.87304688 460.68115234 C-239.0841711 457.60245747 -235.26488489 454.56890817 -231.40893555 451.57470703 C-215.69360517 439.35430096 -203.41663093 427.40796421 -200.5625 406.8125 C-198.69270077 390.11179321 -203.94215276 375.4244342 -214.26928711 362.28417969 C-216.32616126 359.73952602 -218.42014806 357.22745825 -220.52294922 354.72070312 C-222.71402071 352.07548227 -224.79208667 349.3564646 -226.875 346.625 C-227.68578757 345.56479023 -228.49699849 344.5049041 -229.30859375 343.4453125 C-229.73382324 342.89004883 -230.15905273 342.33478516 -230.59716797 341.76269531 C-237.93948611 332.20975928 -245.37050138 322.72438427 -252.82275391 313.25708008 C-259.52454734 304.73692345 -266.1616048 296.16611873 -272.81152344 287.60546875 C-274.60321007 285.2992415 -276.39523698 282.99327934 -278.1875 280.6875 C-278.77176758 279.93573486 -279.35603516 279.18396973 -279.95800781 278.40942383 C-283.03607295 274.4519733 -286.1241434 270.50286618 -289.22900391 266.56640625 C-291.49260077 263.69526032 -293.74739207 260.81727177 -296 257.9375 C-296.81114258 256.90230225 -296.81114258 256.90230225 -297.63867188 255.84619141 C-311.28570065 238.38465544 -321.41833919 223.05117563 -320 199.9375 C-317.41747223 182.42883712 -307.26118515 171.21151286 -293.51049805 160.9934082 C-291.06966441 159.20955875 -288.61865019 157.44065009 -286.1640625 155.67578125 C-280.86414732 151.86375623 -275.6783279 147.91240019 -270.5 143.9375 C-263.11446018 138.28284022 -255.66803084 132.72278011 -248.1640625 127.2265625 C-241.32771275 122.20718278 -234.58781756 117.0667168 -227.85351562 111.91162109 C-221.94748867 107.3989174 -215.99420594 102.95728752 -210 98.5625 C-203.22204454 93.59163204 -196.52697178 88.53590546 -189.88085938 83.38964844 C-178.40945071 74.53295857 -166.85706861 65.79139129 -155.16552734 57.22753906 C-149.22415777 52.86552089 -143.35293281 48.41731074 -137.5 43.9375 C-130.11440426 38.28459535 -122.67032996 32.72316162 -115.16625977 27.22875977 C-109.20038799 22.84965492 -103.31206002 18.37561041 -97.4375 13.875 C-67.14498577 -9.24767186 -34.31533525 -29.18407017 0 0 Z " fill="#FFFFFF" transform="translate(1353,752.0625)"/>
<path d="M0 0 C4.68037928 3.79037427 7.84856423 9.09131642 9 15 C9.36599467 21.21647181 8.43282007 25.53266377 6.02734375 31.23046875 C5.55656654 32.39255104 5.55656654 32.39255104 5.07627869 33.57810974 C4.0429505 36.12007344 2.99031588 38.65355297 1.9375 41.1875 C1.20000864 42.99148323 0.46386518 44.79601802 -0.27099609 46.60107422 C-1.77893916 50.29964016 -3.29422189 53.9950599 -4.81591797 57.68798828 C-6.77248118 62.43939761 -8.70696237 67.19934006 -10.62890625 71.96484375 C-18.99089882 92.68816997 -27.445771 113.37398034 -35.88085938 134.06762695 C-41.14246964 146.97711939 -46.39364985 159.89071756 -51.625 172.8125 C-59.87764968 193.19399614 -68.19215617 213.55021729 -76.50976562 233.90527344 C-78.12102164 237.84839666 -79.73173654 241.79173997 -81.34179688 245.73535156 C-90.52212826 268.22090449 -99.74907883 290.68655874 -109.03100586 313.13037109 C-113.75336754 324.55062896 -118.4583015 335.97780707 -123.14245605 347.41378784 C-131.34256008 367.43293234 -139.60750134 387.4247142 -147.91790771 407.39831543 C-148.9950856 409.98818425 -150.07114638 412.57851478 -151.14697266 415.16894531 C-155.97307003 426.78505902 -160.83291937 438.38660368 -165.72424316 449.97540283 C-167.08217867 453.19483131 -168.43702466 456.41555183 -169.79199219 459.63623047 C-172.22184115 465.40608285 -174.66761171 471.16899304 -177.12295532 476.92803955 C-178.06925396 479.15284742 -179.0112591 481.37948727 -179.94857788 483.60809326 C-185.07334687 495.78116801 -190.21459042 507.2771936 -198 518 C-198.57532471 518.79253174 -199.15064941 519.58506348 -199.7434082 520.40161133 C-201.24341456 522.3928048 -202.78584501 524.32949472 -204.375 526.25 C-204.92462402 526.919104 -205.47424805 527.58820801 -206.04052734 528.27758789 C-213.16478438 536.78706008 -221.50161398 543.69361129 -230.1171875 550.65234375 C-233.28016047 553.22815236 -236.39317672 555.85705222 -239.5 558.5 C-244.34934575 562.62130338 -249.2516153 566.66991943 -254.1875 570.6875 C-257.31799912 573.26146594 -260.4116341 575.87579466 -263.5 578.5 C-268.2691121 582.55012599 -273.07912432 586.54352113 -277.9296875 590.49609375 C-287.50861889 598.30791948 -297.05229952 606.15972837 -306.46826172 614.16748047 C-310.66328182 617.73028404 -314.91914278 621.21325575 -319.1875 624.6875 C-322.31799851 627.26146545 -325.41165634 629.87576903 -328.5 632.5 C-335.15033651 638.14857944 -341.90121006 643.66823508 -348.671875 649.171875 C-354.22044283 653.69411815 -359.70914795 658.27883279 -365.16357422 662.91357422 C-369.46468969 666.56258097 -373.82328306 670.13630258 -378.19921875 673.6953125 C-381.26775787 676.22033075 -384.29039812 678.79484769 -387.3125 681.375 C-391.74851603 685.15792492 -396.26600643 688.80532737 -400.875 692.375 C-406.62027155 696.83051671 -412.13095441 701.51143405 -417.60058594 706.29980469 C-422.07623043 710.2151181 -426.63229318 714.0112924 -431.25390625 717.75390625 C-434.38989473 720.31890394 -437.47755315 722.9365746 -440.5625 725.5625 C-445.11274323 729.43253169 -449.7283332 733.19960282 -454.41015625 736.91015625 C-457.46081975 739.37185304 -460.45144946 741.89813682 -463.4375 744.4375 C-468.22667258 748.50968486 -473.05616963 752.52481607 -477.9296875 756.49609375 C-494.60719688 770.07803702 -494.60719688 770.07803702 -511 784 C-512.02673828 784.87978516 -512.02673828 784.87978516 -513.07421875 785.77734375 C-523.79646879 795.63217581 -530.46662269 810.71340971 -531.15237761 825.22440338 C-531.17116864 834.40822107 -530.51449301 843.37808538 -529.44348145 852.50585938 C-529.27364242 854.00788392 -529.10455063 855.50999311 -528.936131 857.01217747 C-528.476129 861.09633316 -528.00583303 865.17924455 -527.53373742 869.26201749 C-527.02447403 873.68280011 -526.52506768 878.10469751 -526.02452087 882.526474 C-525.15712562 890.17806037 -524.28391759 897.82896482 -523.40696716 905.47946167 C-522.13647316 916.56531368 -520.87778018 927.65248255 -519.62236911 938.74005163 C-517.58138217 956.7649901 -515.53482425 974.78929053 -513.48291016 992.81298828 C-513.36029495 993.89004701 -513.23767974 994.96710574 -513.11134893 996.07680261 C-511.74440059 1008.08300804 -510.37604035 1020.08905184 -509.00604248 1032.09490967 C-508.5097115 1036.44461924 -508.01339031 1040.79432992 -507.51708984 1045.14404297 C-507.39462303 1046.21735123 -507.27215621 1047.29065949 -507.14597827 1048.39649224 C-505.09814854 1066.34627571 -503.06036363 1084.29718391 -501.03035116 1102.24899101 C-499.78066294 1113.29644056 -498.52249817 1124.34285858 -497.25308692 1135.38805956 C-496.38244998 1142.9691184 -495.52119127 1150.55120644 -494.66703856 1158.13414007 C-494.1753721 1162.4962515 -493.67967752 1166.8577975 -493.17239189 1171.21812248 C-489.633892 1201.67454219 -488.00530432 1226.1636795 -500.37307739 1254.78961182 C-502.0952464 1258.77600297 -503.79759518 1262.77076513 -505.501297 1266.76507568 C-506.38050778 1268.82592201 -507.26071168 1270.88634492 -508.14189148 1272.9463501 C-512.35772434 1282.80821394 -516.47000561 1292.71146526 -520.5625 1302.625 C-521.9627239 1306.01205734 -523.36395682 1309.39869637 -524.765625 1312.78515625 C-525.1129216 1313.62433594 -525.4602182 1314.46351562 -525.81803894 1315.328125 C-529.78950914 1324.91741531 -533.80035068 1334.49017576 -537.8125 1344.0625 C-544.18317093 1359.26398219 -550.53771202 1374.47206875 -556.875 1389.6875 C-557.29077301 1390.68572784 -557.70654602 1391.68395569 -558.13491821 1392.71243286 C-560.24608435 1397.78134384 -562.35698733 1402.85036435 -564.46777344 1407.91943359 C-568.22770304 1416.9485858 -571.9899405 1425.97677638 -575.75201416 1435.0050354 C-577.83477161 1440.00331714 -579.91737813 1445.00166177 -582 1450 C-582.83333261 1452.0000003 -583.66666594 1454.0000003 -584.5 1456 C-584.9125 1456.99 -585.325 1457.98 -585.75 1459 C-589.49999991 1467.99999978 -589.49999991 1467.99999978 -590.74996948 1470.99992371 C-591.58340743 1473.00017682 -592.41684249 1475.00043113 -593.25027466 1477.00068665 C-595.33198371 1481.99682394 -597.41374277 1486.9929404 -599.49560547 1491.98901367 C-603.26504626 1501.0350909 -607.03410933 1510.0813246 -610.80133057 1519.12832642 C-619.54808201 1540.13361361 -628.30482302 1561.13457969 -637.09799194 1582.1204834 C-642.35433635 1594.66582211 -647.59337886 1607.21825773 -652.8203125 1619.77587891 C-655.76459622 1626.8494111 -658.71301958 1633.92121504 -661.66256714 1640.99255371 C-663.69537823 1645.86694075 -665.72413863 1650.74295758 -667.74635315 1655.62174988 C-668.99272147 1658.62485675 -670.24683192 1661.62472559 -671.5 1664.625 C-671.91435303 1665.63054932 -672.32870605 1666.63609863 -672.75561523 1667.67211914 C-675.90462974 1675.17616792 -678.33910709 1680.82776208 -686.05859375 1684.25390625 C-693.53806863 1687.12831209 -700.55999531 1686.42336433 -708.01953125 1684.046875 C-710.53366306 1682.71790592 -711.47623036 1681.39969486 -713 1679 C-713.67849559 1676.43507892 -713.67849559 1676.43507892 -714.09510326 1673.55125141 C-714.2514469 1672.48464554 -714.40779053 1671.41803968 -714.56887186 1670.31911242 C-715.26693508 1664.94495547 -715.90166685 1659.56852499 -716.47834778 1654.17997742 C-716.61410162 1652.93771989 -716.74985547 1651.69546236 -716.88972306 1650.41556066 C-717.26479103 1646.9825071 -717.63560433 1643.54900567 -718.00569852 1640.11541286 C-718.41097505 1636.3626655 -718.82028799 1632.610358 -719.22907925 1628.85799217 C-719.94711138 1622.26197055 -720.6626015 1615.66567704 -721.37644196 1609.06920052 C-722.4466204 1599.18008975 -723.52087903 1589.29142509 -724.59595834 1579.40284606 C-726.4254364 1562.57437273 -728.25179223 1545.74556192 -730.07644653 1528.91656494 C-732.71902222 1504.54413795 -735.36586327 1480.17217534 -738.01368694 1455.800318 C-738.97421558 1446.9590509 -739.9346608 1438.11777474 -740.89510312 1429.27649826 C-741.13948576 1427.02685555 -741.38387038 1424.77721306 -741.62825695 1422.52757078 C-743.38814524 1406.32724827 -745.14743757 1390.12686112 -746.90633071 1373.92643052 C-754.63646767 1302.72787861 -762.38110231 1231.53091192 -770.13313002 1160.33474092 C-771.1127183 1151.33800223 -772.09225443 1142.34125787 -773.07176781 1133.34451103 C-773.37226883 1130.58443912 -773.67277007 1127.82436723 -773.97327143 1125.06429535 C-774.04759398 1124.38165089 -774.12191652 1123.69900642 -774.19849127 1122.99567576 C-776.80924706 1099.01619871 -779.42013269 1075.03673579 -782.03109741 1051.05728149 C-782.10426469 1050.38530246 -782.17743196 1049.71332342 -782.25281642 1049.02098138 C-783.94145752 1033.51225867 -785.63015583 1018.00354219 -787.31897354 1002.49483871 C-790.42366701 973.98383011 -793.5280041 945.47278278 -796.63120067 916.96161121 C-797.92437371 905.08049922 -799.21778667 893.19941348 -800.51189423 881.31840324 C-800.87834581 877.95380704 -801.24478976 874.58921 -801.61122833 871.22461238 C-801.85149868 869.01857065 -802.09178974 866.81253117 -802.33210184 864.60649399 C-803.59670355 852.99709929 -804.85932074 841.38749666 -806.11543846 829.77718067 C-806.44303571 826.75014726 -806.7706641 823.72311722 -807.09832813 820.69609103 C-807.31382096 818.70529865 -807.52926737 816.71450123 -807.74466644 814.7236987 C-809.15439307 801.70069346 -810.58826161 788.68059225 -812.04311591 775.66255295 C-812.8109754 768.78829453 -813.56968398 761.91303571 -814.32571582 755.03746729 C-814.92576843 749.58669405 -815.53708162 744.13735536 -816.1576744 738.68888468 C-816.5335561 735.36309754 -816.8979552 732.03612419 -817.25922735 728.70872143 C-817.42581798 727.19547599 -817.59698442 725.68272485 -817.77347891 724.17060253 C-819.99699436 705.07024074 -819.20541177 686.41125933 -808 670 C-801.42369934 661.79044046 -793.79531792 654.99482439 -785.66601562 648.36767578 C-782.87130302 646.07342315 -780.12725911 643.71983486 -777.375 641.375 C-773.47010485 638.06277587 -769.53656948 634.79179511 -765.5625 631.5625 C-760.69870975 627.60491812 -755.94118769 623.53457554 -751.19165039 619.44165039 C-746.8019965 615.66665609 -742.33885229 611.99271539 -737.84375 608.34375 C-734.52313514 605.60697951 -731.25953218 602.8089705 -728 600 C-723.01059233 595.70027287 -717.95778844 591.49514591 -712.84375 587.34375 C-709.52313514 584.60697951 -706.25953218 581.8089705 -703 579 C-698.01059233 574.70027287 -692.95778844 570.49514591 -687.84375 566.34375 C-684.52313514 563.60697951 -681.25953218 560.8089705 -678 558 C-673.01059233 553.70027287 -667.95778844 549.49514591 -662.84375 545.34375 C-659.52313514 542.60697951 -656.25953218 539.8089705 -653 537 C-648.01059233 532.70027287 -642.95778844 528.49514591 -637.84375 524.34375 C-634.52313514 521.60697951 -631.25953218 518.8089705 -628 516 C-623.01059233 511.70027287 -617.95778844 507.49514591 -612.84375 503.34375 C-609.52313514 500.60697951 -606.25953218 497.8089705 -603 495 C-598.01059233 490.70027287 -592.95778844 486.49514591 -587.84375 482.34375 C-584.52313514 479.60697951 -581.25953218 476.8089705 -578 474 C-573.01059233 469.70027287 -567.95778844 465.49514591 -562.84375 461.34375 C-559.52313514 458.60697951 -556.25953218 455.8089705 -553 453 C-548.01059233 448.70027287 -542.95778844 444.49514591 -537.84375 440.34375 C-534.52313514 437.60697951 -531.25953218 434.8089705 -528 432 C-523.01059233 427.70027287 -517.95778844 423.49514591 -512.84375 419.34375 C-509.52313514 416.60697951 -506.25953218 413.8089705 -503 411 C-498.01059233 406.70027287 -492.95778844 402.49514591 -487.84375 398.34375 C-484.52313514 395.60697951 -481.25953218 392.8089705 -478 390 C-473.01059233 385.70027287 -467.95778844 381.49514591 -462.84375 377.34375 C-459.52313514 374.60697951 -456.25953218 371.8089705 -453 369 C-448.01059233 364.70027287 -442.95778844 360.49514591 -437.84375 356.34375 C-434.52313514 353.60697951 -431.25953218 350.8089705 -428 348 C-423.01059233 343.70027287 -417.95778844 339.49514591 -412.84375 335.34375 C-409.52313514 332.60697951 -406.25953218 329.8089705 -403 327 C-398.01059233 322.70027287 -392.95778844 318.49514591 -387.84375 314.34375 C-384.52313514 311.60697951 -381.25953218 308.8089705 -378 306 C-373.01059233 301.70027287 -367.95778844 297.49514591 -362.84375 293.34375 C-359.52313514 290.60697951 -356.25953218 287.8089705 -353 285 C-348.01059233 280.70027287 -342.95778844 276.49514591 -337.84375 272.34375 C-334.52313514 269.60697951 -331.25953218 266.8089705 -328 264 C-323.01059233 259.70027287 -317.95778844 255.49514591 -312.84375 251.34375 C-309.52313514 248.60697951 -306.25953218 245.8089705 -303 243 C-298.01059233 238.70027287 -292.95778844 234.49514591 -287.84375 230.34375 C-284.52313514 227.60697951 -281.25953218 224.8089705 -278 222 C-273.01059233 217.70027287 -267.95778844 213.49514591 -262.84375 209.34375 C-259.52313514 206.60697951 -256.25953218 203.8089705 -253 201 C-248.01059233 196.70027287 -242.95778844 192.49514591 -237.84375 188.34375 C-234.52313514 185.60697951 -231.25953218 182.8089705 -228 180 C-223.01059233 175.70027287 -217.95778844 171.49514591 -212.84375 167.34375 C-209.52313514 164.60697951 -206.25953218 161.8089705 -203 159 C-198.01059233 154.70027287 -192.95778844 150.49514591 -187.84375 146.34375 C-184.52313514 143.60697951 -181.25953218 140.8089705 -178 138 C-173.01059233 133.70027287 -167.95778844 129.49514591 -162.84375 125.34375 C-159.52313514 122.60697951 -156.25953218 119.8089705 -153 117 C-148.01059233 112.70027287 -142.95778844 108.49514591 -137.84375 104.34375 C-134.52313514 101.60697951 -131.25953218 98.8089705 -128 96 C-123.01059233 91.70027287 -117.95778844 87.49514591 -112.84375 83.34375 C-109.52313514 80.60697951 -106.25953218 77.8089705 -103 75 C-98.01059233 70.70027287 -92.95778844 66.49514591 -87.84375 62.34375 C-84.52313514 59.60697951 -81.25953218 56.8089705 -78 54 C-73.01059233 49.70027287 -67.95778844 45.49514591 -62.84375 41.34375 C-59.52313514 38.60697951 -56.25953218 35.8089705 -53 33 C-48.01335954 28.70265758 -42.96417315 24.49896052 -37.8515625 20.3515625 C-34.48347555 17.57404422 -31.17951154 14.72753338 -27.875 11.875 C-9.22954953 -4.16129979 -9.22954953 -4.16129979 0 0 Z " fill="#67FF76" transform="translate(2873,1456)"/>
<path d="M0 0 C5.4617006 4.65543028 9.75007095 9.67372508 13.92260742 15.48852539 C15.22370362 17.26268724 16.52582106 19.03610051 17.82885742 20.80883789 C18.49143555 21.71537109 19.15401367 22.6219043 19.83666992 23.5559082 C23.13963669 28.03691187 26.53425206 32.44696529 29.92260742 36.86352539 C35.01481691 43.52110185 40.03559217 50.22425746 44.98510742 56.98852539 C49.51137427 63.17350617 54.13061087 69.27006192 58.86010742 75.30102539 C64.19456982 82.10342972 69.36604556 89.00762325 74.46948242 95.98461914 C78.86241909 101.97853717 83.34251548 107.90061883 87.86010742 113.80102539 C93.51376704 121.18734548 99.07481131 128.63297271 104.57104492 136.13696289 C109.59319683 142.97708834 114.73622404 149.72093533 119.89477539 156.45849609 C124.32434087 162.25483468 128.678263 168.10056465 132.98510742 173.98852539 C137.51126112 180.1735861 142.13061396 186.27006586 146.86010742 192.30102539 C152.19074488 199.09855223 157.36835182 205.99111005 162.45410156 212.97363281 C165.5872555 217.26260553 168.77345349 221.49644236 172.05151367 225.67602539 C186.21722163 243.77232814 194.77098533 258.77425745 192.86010742 282.30102539 C190.90519838 296.26655155 182.75951421 309.14878855 171.63745117 317.70336914 C170.02995946 318.88964019 168.41634596 320.06764789 166.79760742 321.23852539 C165.00525529 322.55790721 163.21361132 323.87825149 161.42260742 325.19946289 C160.50350586 325.87460937 159.5844043 326.54975586 158.63745117 327.24536133 C154.15099986 330.5660294 149.72691321 333.96724337 145.29760742 337.36352539 C137.93169781 342.99540116 130.50405105 348.53324392 123.02392578 354.01220703 C116.18757779 359.0313968 109.44783364 364.17187851 102.71362305 369.3269043 C96.80759609 373.839608 90.85431336 378.28123787 84.86010742 382.67602539 C78.08215197 387.64689335 71.3870792 392.70261993 64.7409668 397.84887695 C53.26955813 406.70556682 41.71717603 415.4471341 30.02563477 424.01098633 C24.08426519 428.3730045 18.21304023 432.82121465 12.36010742 437.30102539 C4.97368951 442.95455934 -2.47183724 448.51572733 -9.97583008 454.01196289 C-15.91661716 458.37380324 -21.78707075 462.82202223 -27.63989258 467.30102539 C-75.42784909 503.82423629 -75.42784909 503.82423629 -100.76489258 500.67602539 C-119.33172479 497.26532994 -132.00567614 485.5723656 -142.63989258 470.61352539 C-143.85442702 468.93527473 -145.07063828 467.25823657 -146.28833008 465.58227539 C-146.91578125 464.71731445 -147.54323242 463.85235352 -148.18969727 462.96118164 C-151.48610072 458.46473546 -154.87549583 454.04005489 -158.26489258 449.61352539 C-163.40022489 442.89813782 -168.50681835 436.16377463 -173.56665039 429.39135742 C-177.67926158 423.89546352 -181.84579782 418.44163793 -186.01489258 412.98852539 C-191.70754933 405.5384765 -197.31010042 398.02968111 -202.8503418 390.46582031 C-207.21226727 384.52474709 -211.66025995 378.65372549 -216.13989258 372.80102539 C-221.2064126 366.18154903 -226.21399869 359.52581919 -231.13989258 352.80102539 C-238.66886173 342.52879392 -246.39819606 332.41338496 -254.13989258 322.30102539 C-262.46786458 311.42286101 -270.75469555 300.524052 -278.84692383 289.46899414 C-283.24292375 283.47807361 -287.74171035 277.57128246 -292.26489258 271.67602539 C-297.23473978 265.1801695 -302.14332744 258.64977136 -306.88989258 251.98852539 C-307.36700684 251.32578613 -307.84412109 250.66304687 -308.33569336 249.98022461 C-318.22197395 235.94935222 -321.16724878 221.05325832 -318.67114258 204.12133789 C-313.68589731 183.64622339 -300.02636007 173.08736324 -283.86889648 161.30834961 C-279.3905646 158.01430373 -274.98767629 154.62279991 -270.57739258 151.23852539 C-263.21171756 145.60634964 -255.78382945 140.06880192 -248.30371094 134.58984375 C-242.36294731 130.22818457 -236.49226914 125.78041038 -230.63989258 121.30102539 C-223.25347466 115.64749144 -215.80794792 110.08632345 -208.30395508 104.59008789 C-201.46382963 99.56793598 -194.71998264 94.42490877 -187.98242188 89.26635742 C-182.18608329 84.83679194 -176.34035331 80.48286982 -170.45239258 76.17602539 C-164.26733187 71.64987169 -158.17085211 67.03051886 -152.13989258 62.30102539 C-145.33748825 56.966563 -138.43329472 51.79508725 -131.45629883 46.69165039 C-125.46237893 42.29871235 -119.54036145 37.81853799 -113.63989258 33.30102539 C-106.2328916 27.63297079 -98.78030317 22.036334 -91.24682617 16.53735352 C-87.10961693 13.51244599 -83.01414525 10.44588232 -78.96411133 7.30493164 C-55.17458636 -11.08031127 -26.48672792 -21.029223 0 0 Z " fill="#FFFFFF" transform="translate(2122.139892578125,315.698974609375)"/>
<path d="M0 0 C8.25744533 6.13713126 14.32605068 13.83917273 20.31982422 22.10742188 C23.29428767 26.14982522 26.3731333 30.11419971 29.42578125 34.09765625 C35.18129022 41.63022721 40.84651212 49.22183272 46.44799805 56.86938477 C50.8101898 62.81076759 55.25840098 68.6821326 59.73828125 74.53515625 C64.80479805 81.1546284 69.81257516 87.81022752 74.73828125 94.53515625 C81.09434307 103.21164161 87.60048531 111.76826697 94.1328125 120.3125 C97.54820694 124.78026669 100.92409421 129.27539723 104.2890625 133.78125 C106.95168018 137.33179129 109.65220207 140.8532732 112.34765625 144.37890625 C118.79745487 152.81698865 125.17218517 161.301193 131.44799805 169.86938477 C135.8101898 175.81076759 140.25840098 181.6821326 144.73828125 187.53515625 C150.38672775 194.91492735 155.94442389 202.35267608 161.43383789 209.85131836 C166.57688963 216.85884536 171.84244727 223.76993819 177.14648438 230.65625 C189.70254511 247.01913284 198.48843483 261.76746719 196.73828125 283.03515625 C192.6450713 306.95714973 177.90961167 318.43827207 159.46728516 332.01171875 C154.99923617 335.32458241 150.59021416 338.71388605 146.17578125 342.09765625 C138.80977421 347.72940712 131.3822276 353.26737278 123.90209961 358.74633789 C117.96133598 363.10799707 112.09065781 367.55577126 106.23828125 372.03515625 C98.85186333 377.6886902 91.40633659 383.24985819 83.90234375 388.74609375 C77.0622183 393.76824566 70.31837131 398.91127287 63.58081055 404.06982422 C57.78447196 408.4993897 51.93874199 412.85331182 46.05078125 417.16015625 C39.86572054 421.68630995 33.76924078 426.30566278 27.73828125 431.03515625 C20.93587692 436.36961865 14.03168339 441.54109439 7.0546875 446.64453125 C1.06076574 451.03747065 -4.86118756 455.51772302 -10.76171875 460.03515625 C-18.95858281 466.30604701 -27.21922343 472.47965042 -35.55078125 478.5703125 C-38.82033782 480.9632885 -42.05986692 483.39145875 -45.28515625 485.84375 C-61.32080636 497.98060967 -61.32080636 497.98060967 -70.26171875 501.03515625 C-71.37546875 501.44765625 -72.48921875 501.86015625 -73.63671875 502.28515625 C-89.42495834 505.55168858 -104.33123942 503.74582587 -118.17578125 495.24609375 C-129.32403506 487.53752155 -136.53919925 477.08090192 -144.41796875 466.26953125 C-148.29205816 460.96751771 -152.26748195 455.74695992 -156.26171875 450.53515625 C-161.32868619 443.91603531 -166.33598783 437.26005152 -171.26171875 430.53515625 C-176.89890904 422.84067376 -182.64813672 415.23766469 -188.44140625 407.66015625 C-192.89070155 401.83985717 -197.30364675 395.99443742 -201.68847656 390.12548828 C-205.80108776 384.62959438 -209.96762399 379.17576878 -214.13671875 373.72265625 C-219.8293755 366.27260735 -225.43192659 358.76381197 -230.97216797 351.19995117 C-235.33409344 345.25887795 -239.78208612 339.38785635 -244.26171875 333.53515625 C-249.32823607 326.91568343 -254.33598039 320.26006167 -259.26171875 313.53515625 C-264.89614067 305.84445245 -270.64289215 298.24545709 -276.43261719 290.67114258 C-280.97127633 284.73304514 -285.48785032 278.77972664 -289.9543457 272.78710938 C-292.41585691 269.4854618 -294.89812811 266.20362547 -297.421875 262.94921875 C-309.6923428 247.05668854 -318.13541913 231.75647862 -315.89453125 210.9609375 C-313.04825784 193.30350059 -303.07800958 180.44962263 -288.87109375 170.16796875 C-288.113125 169.62914062 -287.35515625 169.0903125 -286.57421875 168.53515625 C-284.89204632 167.31803939 -283.21110175 166.09922409 -281.53125 164.87890625 C-280.2330835 163.93724609 -280.2330835 163.93724609 -278.90869141 162.9765625 C-274.4776166 159.72661721 -270.12178311 156.37942053 -265.76171875 153.03515625 C-258.37594595 147.38079455 -250.92975625 141.82044124 -243.42578125 136.32421875 C-236.5856558 131.30206684 -229.84180881 126.15903963 -223.10424805 121.00048828 C-217.30790946 116.5709228 -211.46217949 112.21700068 -205.57421875 107.91015625 C-199.38915804 103.38400255 -193.29267828 98.76464972 -187.26171875 94.03515625 C-180.45931442 88.70069385 -173.55512089 83.52921811 -166.578125 78.42578125 C-160.58420697 74.03284458 -154.66212531 69.55274819 -148.76171875 65.03515625 C-141.37539866 59.38149663 -133.92977143 53.82045236 -126.42578125 48.32421875 C-120.48500085 43.96238331 -114.61430958 39.51445354 -108.76171875 35.03515625 C-100.56560497 28.76506149 -92.30510939 22.59292981 -83.9765625 16.5 C-80.69916928 14.10078625 -77.44524358 11.67322166 -74.203125 9.2265625 C-73.36539551 8.59830566 -72.52766602 7.97004883 -71.66455078 7.32275391 C-70.08138565 6.13467455 -68.50253354 4.94081374 -66.92919922 3.73974609 C-46.90935706 -11.22076996 -21.45498234 -13.67428509 0 0 Z " fill="#FFFFFF" transform="translate(1084.26171875,386.96484375)"/>
<path d="M0 0 C6.6786417 6.17621178 11.76725985 13.64580719 17.0703125 20.984375 C20.91550637 26.30005395 24.88562593 31.51385187 28.87890625 36.71875 C34.53336734 44.10444513 40.09362288 51.55071472 45.58984375 59.0546875 C50.61199566 65.89481295 55.75502287 72.63865994 60.91357422 79.3762207 C65.3431397 85.17255929 69.69706182 91.01828926 74.00390625 96.90625 C78.53005995 103.09131071 83.14941278 109.18779047 87.87890625 115.21875 C93.21336865 122.02115433 98.38484439 128.92534786 103.48828125 135.90234375 C107.88121792 141.89626178 112.36131431 147.81834344 116.87890625 153.71875 C121.94553602 160.33813493 126.95316975 166.99384711 131.87890625 173.71875 C137.51549415 181.41241025 143.26467249 189.01415626 149.05639648 196.59155273 C153.52124255 202.43336187 157.96905908 208.28671039 162.35839844 214.18554688 C165.11455072 217.8866122 167.90862484 221.55305453 170.7421875 225.1953125 C184.2236019 242.6320179 184.2236019 242.6320179 187.87890625 253.21875 C188.13800781 253.95351563 188.39710938 254.68828125 188.6640625 255.4453125 C192.54132024 269.1569392 190.1628198 285.40410351 183.40625 297.7421875 C176.2227237 309.39015598 166.55389984 316.3241701 155.60791016 324.22753906 C151.1192388 327.502687 146.72257667 330.89642071 142.31640625 334.28125 C135.63571027 339.39059885 128.91197841 344.43366317 122.12890625 349.40625 C114.05578256 355.32543271 106.08867725 361.37129066 98.15234375 367.47216797 C86.52937846 376.40158095 74.86787428 385.26817515 63.04345703 393.92944336 C57.10239703 398.29119521 51.23151552 402.7391869 45.37890625 407.21875 C37.99248833 412.87228395 30.54696159 418.43345194 23.04296875 423.9296875 C17.10219192 428.29152032 11.23137365 432.73929548 5.37890625 437.21875 C-1.24056657 442.28526732 -7.89618833 447.29301164 -14.62109375 452.21875 C-21.40569229 457.18933419 -28.12521089 462.23787543 -34.80859375 467.34375 C-35.68749268 468.0145459 -36.5663916 468.6853418 -37.47192383 469.37646484 C-40.79651468 471.91447666 -44.12096323 474.45265675 -47.44140625 476.99609375 C-64.66512748 490.1725448 -80.79768546 500.66219722 -103.48828125 497.79296875 C-123.95164452 494.07857208 -135.77477613 481.61619788 -147.40820312 465.55517578 C-150.53672435 461.28779435 -153.77552785 457.10430888 -156.99609375 452.90625 C-162.69008983 445.45724588 -168.29132276 437.94737683 -173.83154297 430.38354492 C-178.19346844 424.4424717 -182.64146112 418.5714501 -187.12109375 412.71875 C-192.18761159 406.0992765 -197.19532316 399.44363213 -202.12109375 392.71875 C-207.68939755 385.11897153 -213.36689549 377.60885542 -219.08984375 370.125 C-224.25984009 363.36117049 -229.37578356 356.55865756 -234.47412109 349.74072266 C-239.00803258 343.68480574 -243.58820585 337.66560341 -248.18359375 331.65625 C-253.81442085 324.28952245 -259.35329556 316.86271646 -264.83227539 309.38256836 C-269.85146516 302.54622037 -274.99194687 295.80647622 -280.14697266 289.07226562 C-285.2569153 282.38459876 -290.26799903 275.62962008 -295.23852539 268.83789062 C-298.60907617 264.24066762 -302.04718853 259.70893233 -305.55859375 255.21875 C-318.50435829 238.44665112 -323.66309768 224.33622076 -322.12109375 203.21875 C-320.60040819 194.65077306 -317.16050658 187.27154526 -312.12109375 180.21875 C-311.62738281 179.5175 -311.13367187 178.81625 -310.625 178.09375 C-304.31368428 170.16452193 -295.54383986 164.69825349 -287.38037109 158.85107422 C-284.45548812 156.73785101 -281.59808692 154.55451072 -278.74609375 152.34375 C-277.7303125 151.55742187 -276.71453125 150.77109375 -275.66796875 149.9609375 C-275.11818359 149.53522461 -274.56839844 149.10951172 -274.00195312 148.67089844 C-262.53054446 139.81420857 -250.97816236 131.07264129 -239.28662109 122.50878906 C-233.34525152 118.14677089 -227.47402656 113.69856074 -221.62109375 109.21875 C-214.23467583 103.56521605 -206.78914909 98.00404806 -199.28515625 92.5078125 C-193.34437942 88.14597968 -187.47356115 83.69820452 -181.62109375 79.21875 C-175.00162093 74.15223268 -168.34599917 69.14448836 -161.62109375 64.21875 C-153.92661126 58.58155971 -146.32360219 52.83233203 -138.74609375 47.0390625 C-132.92579467 42.5897672 -127.08037492 38.176822 -121.21142578 33.79199219 C-116.61746392 30.35430229 -112.05170937 26.88105747 -107.4934082 23.39624023 C-97.43043179 15.70328373 -87.30851672 8.10032784 -77.06835938 0.64453125 C-75.41411547 -0.56670049 -73.77384355 -1.7969779 -72.13671875 -3.03125 C-49.47961755 -19.77152859 -21.29823875 -17.88581376 0 0 Z " fill="#FFFFFF" transform="translate(1601.12109375,352.78125)"/>
<path d="M0 0 C2.3125 1.0625 2.3125 1.0625 4 3 C5.75075841 9.44686779 4.07451041 13.43839968 1.46875 19.26171875 C1.08657822 20.15229477 0.70440643 21.04287079 0.31065369 21.96043396 C-0.94439345 24.87628042 -2.22227764 27.78152783 -3.5 30.6875 C-4.3819752 32.72755481 -5.26208252 34.7684181 -6.14038086 36.81005859 C-7.91654824 40.93619355 -9.69964255 45.05922083 -11.48779297 49.18017578 C-14.6214567 56.41879553 -17.65938999 63.69578938 -20.67593384 70.98382568 C-22.18044261 74.61741299 -23.69216074 78.24799976 -25.203125 81.87890625 C-25.50740921 82.61052979 -25.81169342 83.34215332 -26.12519836 84.09594727 C-30.00606467 93.42435988 -33.90969261 102.74325128 -37.8125 112.0625 C-38.37748703 113.41169525 -38.37748703 113.41169525 -38.95388794 114.78814697 C-40.86963703 119.36290696 -42.78558974 123.93758162 -44.70166016 128.51220703 C-48.09501077 136.61413952 -51.48645331 144.7168707 -54.87802124 152.81954956 C-56.75193424 157.29639983 -58.62597358 161.77319721 -60.5 166.25 C-61.2500006 168.04166641 -62.0000006 169.83333308 -62.75 171.625 C-139.25000001 354.37500003 -139.25000001 354.37500003 -140.37489319 357.0622406 C-141.12525325 358.85477025 -141.87560929 360.64730158 -142.6259613 362.43983459 C-144.49541937 366.90581148 -146.36494636 371.37175949 -148.23461914 375.83764648 C-152.46868767 385.95135472 -156.70126596 396.06568362 -160.9309082 406.1812439 C-162.85522292 410.78269914 -164.78125925 415.3834179 -166.71142578 419.98242188 C-167.44437757 421.7291492 -168.17728851 423.47589366 -168.91015625 425.22265625 C-169.26279541 426.06309479 -169.61543457 426.90353333 -169.97875977 427.7694397 C-171.8797058 432.30602625 -173.76488524 436.84850607 -175.62715149 441.40110779 C-176.40291522 443.29615191 -177.18314278 445.18928646 -177.96508789 447.08178711 C-178.87092718 449.27791799 -179.76801206 451.47769158 -180.65405273 453.68188477 C-181.04407471 454.62217529 -181.43409668 455.56246582 -181.8359375 456.53125 C-182.16126465 457.33111328 -182.4865918 458.13097656 -182.82177734 458.95507812 C-184.23518175 461.40818117 -185.5578087 462.58095832 -188 464 C-193.95963279 463.79089008 -193.95963279 463.79089008 -196.65047646 461.74530315 C-202.67976927 453.94777802 -201.46557674 435.50230183 -202.52197266 425.79760742 C-202.76831342 423.55729396 -203.01491787 421.31700948 -203.26176453 419.07675171 C-203.92842339 413.01658188 -204.59048595 406.95591913 -205.25101519 400.89507842 C-205.66491297 397.09766585 -206.07951826 393.30033112 -206.49430466 389.50301552 C-207.64646912 378.9523321 -208.79725397 368.40150051 -209.94304848 357.85012341 C-210.23936899 355.12151705 -210.5356904 352.39291079 -210.83203125 349.66430664 C-210.90566562 348.98629379 -210.97929998 348.30828093 -211.05516569 347.60972223 C-212.24592141 336.64813705 -213.4473741 325.68775283 -214.65340622 314.72783896 C-215.896773 303.42710092 -217.13047556 292.1253463 -218.35551679 280.822604 C-219.04142745 274.49614841 -219.73125945 268.17018283 -220.43123245 261.84526634 C-221.09061009 255.88489188 -221.73791733 249.92332117 -222.37655067 243.96068954 C-222.61090291 241.79130568 -222.84934451 239.62235836 -223.0925312 237.45394707 C-224.3242264 226.448927 -225.20075427 215.55308647 -225.23910522 204.47261047 C-225.24369771 203.52674519 -225.24829019 202.5808799 -225.25302184 201.60635203 C-225.14382856 187.45918975 -219.7744417 174.73154866 -209.9375 164.4375 C-205.18247951 159.96312996 -200.034112 155.99169328 -194.8671875 152.01171875 C-190.71476399 148.80205943 -186.66706732 145.47195527 -182.625 142.125 C-172.04565054 133.37592964 -161.40785514 124.70089126 -150.671875 116.14453125 C-147.87710764 113.90136271 -145.09824944 111.6394877 -142.32055664 109.37524414 C-136.60749951 104.71843906 -130.8755903 100.09395749 -125.0625 95.5625 C-118.38110752 90.34833748 -111.8475259 84.96294914 -105.31640625 79.5625 C-96.17685845 72.00785683 -86.95891046 64.5483205 -77.6875 57.15625 C-74.11162179 54.28723143 -70.55612073 51.39344878 -67 48.5 C-61.9091438 44.35780888 -56.80440066 40.23505086 -51.671875 36.14453125 C-48.87674949 33.90107525 -46.09750671 31.63895142 -43.31958008 29.37426758 C-36.39763006 23.73267826 -29.44768045 18.13326517 -22.39453125 12.65625 C-20.05092979 10.83502978 -17.74282547 8.97749178 -15.44921875 7.09375 C-14.29949536 6.16664658 -13.14975636 5.23956252 -12 4.3125 C-10.4840625 3.06919922 -10.4840625 3.06919922 -8.9375 1.80078125 C-5.59235101 -0.24990184 -3.85201823 -0.46724058 0 0 Z " fill="#FFFFFF" transform="translate(2617,2099)"/>
</svg>
